<?xml version="1.0" encoding="utf-8"?>
<!-- Generator: Adobe Illustrator 19.1.0, SVG Export Plug-In . SVG Version: 6.00 Build 0)  -->
<svg version="1.1" id="Layer_1" xmlns="http://www.w3.org/2000/svg" xmlns:xlink="http://www.w3.org/1999/xlink" x="0px" y="0px"
	 viewBox="367.5 86 1351.5 424" style="enable-background:new 367.5 86 1351.5 424;" xml:space="preserve">
<style type="text/css">
	.st0{fill:#6B4200;}
</style>
<path class="st0" d="M1558.2,165.5c-0.5-5.7,4.8-9.4,9.9-10.2c1.6,2.8,3.7,5.5,4.7,8.6c-0.9,1.7-2.3,3.2-4.2,3.8
	c-2.8,0.2-5.7,0.1-8.5-0.3C1559.6,166.9,1558.6,165.9,1558.2,165.5z"/>
<path class="st0" d="M1585.3,166.1c0.2-2.9,2.1-7.9,5.8-6.7c3.3,0.5,6.6,1.8,8.7,4.4c-2.5,2.9-4.5,7.6-8.8,7.7
	C1588.9,169.9,1587.1,167.9,1585.3,166.1"/>
<g>
	<g>
		<path class="st0" d="M1149.7,267c0.2-8.3-0.9-16.6-1.3-24.9c-0.2-3.3-0.1-6.7-0.9-9.9c-2.7-2.9-5.9-5.2-8.7-7.9
			c-2.1,1.5-3.5,5-6.4,4.3c0.4-3.5-0.5-7.1,0.3-10.5c-0.1-0.7-0.3-2-0.5-2.7c-1.6,0.8-3.2,1.7-4.8,2.5c-0.1-3.1,0.3-6.1,1.1-9
			c3.4,2,6.3,4.7,9.3,7.3c3.3,2.9,6.5,6.2,8,10.5c3.4-3.3,1.6-8.4,1.7-12.5c-2-8.3-9.3-13.9-15.9-18.6c-4-2-5.7-6.8-10.2-8
			c-0.7,0.4-1.3,0.9-1.9,1.3c1.3,1.4,2.2,3.1,2.6,5c-1.3-0.1-2.6-0.2-3.8-0.3c-0.5-1.6-0.6-3.2-0.8-4.9c0.8-0.5,1.7-1.1,2.5-1.6
			c-8.7-1.7-17.5-3-26.4-3.3c-2,0.9-0.2,2.8-0.1,4.3c-0.4,1.3-1.7,2.4-1.6,3.9c0.9,1.8,1.8,3.5,2,5.5c-3.4-0.5-7.2-0.9-9.8-3.4
			c-2.1-1.7-2.9-4.3-4.1-6.6c-0.7,0-1.9-0.1-2.6-0.1c0.3-1,1-3.1,1.4-4.1c-10-2.4-20.4-2.4-30.6-2.9c-2.8-0.5-4.8,1.7-6.3,3.8
			c-4.5-0.1-8.5,2.3-12.7,3.7c-11.3,4.5-22.9,8.9-32.8,16.1c0,4.2-0.1,8.4,0.2,12.6c2,0.6,4.1,0.9,6.2,1.1c0.1,0.5,0.2,1.6,0.2,2.1
			c-2,0.6-4.2,1-6,2.2c-0.9,1.2-0.5,2.8-0.6,4.1c0.1,14.9,0.1,29.8,0.1,44.7c0.5,0,1.7-0.1,2.2-0.1c0-0.6,0-1.8,0-2.4
			c2.7,0.6,5.6,1.8,6.4,4.7c-4.5,1.1-9.4,5-8.7,10.1c0.1,4.3-0.1,8.6,0.1,12.9c-0.4,2.2,1.8,1.7,3.2,1.6c0.5,1.4,1.1,2.8,1.7,4.2
			c-1.8,2.2-1.9,5.6-4.9,6.7c-0.1,6.8-0.1,13.6,0,20.5c1.5-0.1,2.9-0.2,4.4-0.3c-0.2,1.9-0.6,3.7-0.9,5.6c6,6,12,12.1,18.1,18.1
			c31.4-0.1,62.9,0.1,94.3-0.1c2.5-1.8,3.6-5,5.5-7.4c-1.1-0.6-2.3-1.2-3.5-1.7c0.2-1.6,0.5-3.2,1.2-4.6c3.4,1.2,7.2,2.1,9.7,4.8
			c1.7,1.8,2.1,4.4,2.7,6.7c0.8-0.3,1.6-0.6,2.4-0.9c0.7,0.1,1.4,0.2,2.1,0.4c1.7-8.8,3.6-17.6,5.4-26.4c-0.6-0.3-1.8-1-2.4-1.4
			c-2.4,0-4.8-0.1-7.1,0.1c-2.5,0.6-4.6,2-6.9,3.1c0.2-1.5,0.4-2.9,0.7-4.4c-2.9,0-5.8,0-8.7,0c0.2,1.1,0.3,2.3,0.5,3.4
			c-1.4,0.9-3,1.6-4.5,2.3c-1-0.4-2.1-0.8-3.1-1.2c-0.2,4-0.4,8.1,0.4,12.1c-1.2,0.8-2.3,1.7-3.4,2.6c-2.5-3.5-5.1-7.4-5.7-11.7
			c0.9-4,6.1-3.6,9.1-4.5c-1.2-1.4-2.4-2.7-3.7-4.1c-7.2,0-14.4,0-21.6,0c-0.6,2.5-1.2,4.9-1.9,7.3c-1.1-0.1-2.3,0.1-3.1-0.8
			c-3.5-3.2-6.8-6.5-10.1-10c-2.1-2.4-4.5-4.8-5.1-8c2.2-0.3,4.5-0.6,6.6-1c-0.9-7.1-1.7-14.2-2.3-21.4c6,0,11.9,0,17.9,0
			c0.8-0.7,1.7-1.5,2.5-2.2c3.5,2.4,7.6,3.5,11.8,3.3c-1-3.8,0.4-7.3,2.7-10.2c0.6,0.1,1.7,0.4,2.3,0.5c-0.3,2.5-0.7,5-1.1,7.4
			c0.7,0.8,1.4,1.5,2.2,2.2c3.8,0,7.7,0.1,11.5-0.1c0.5-1.3,1.2-2.5,2-3.6c0.1,0.9,0.2,2.8,0.3,3.7c5.9-0.1,11.8,0.1,17.7,0
			c1.9,0.1,3.3-1.3,4.9-2.1c2.7,2.5,8.2,3.7,10-0.4C1151.2,278.4,1148.7,272.7,1149.7,267z M1099.2,345.6c-1.1,0.8-2.2,1.6-3.3,2.4
			c0-0.6-0.1-1.9-0.2-2.5C1096.8,345.4,1098,345.5,1099.2,345.6z M1090.1,343c0.5,1.6,1,3.2,1.4,4.8c-2.3-0.5-3.8-2.4-5.2-4.2
			C1087.6,343.3,1088.8,343.2,1090.1,343z M1069.7,336.3c3.3,3,6.2,6.6,7,11c-0.8,0.4-2.4,1.1-3.2,1.5c-0.6-2.6-0.9-5.3-2.5-7.6
			C1069.9,339.8,1069.6,338.1,1069.7,336.3z M1056.2,244.8c0.4,2.4,0.9,4.8,1.1,7.2c-2-2-3.2-4.5-3.3-7.4
			C1054.6,244.6,1055.7,244.7,1056.2,244.8z M1054.1,228.9c0.1-0.6,0.4-1.8,0.5-2.3c0.4-0.1,1.3-0.2,1.7-0.3c0,0.6,0,1.8-0.1,2.4
			C1055.7,228.7,1054.6,228.8,1054.1,228.9z M1050.5,199.4c2.7-0.4,5.8,0.9,6.4,3.8c-0.4,0.9-0.9,3.2-2.4,2.4
			c-2.2-1.2-4.3-2.3-6.6-3.2C1048.8,201.3,1049.6,200.3,1050.5,199.4z M1053.3,252.9c-0.7,1.2-1.6,1.4-2.7,0.6c0-0.5,0.1-1.5,0.1-2
			C1051.7,250.4,1053.9,251.3,1053.3,252.9z M1040.1,194.1c1.6-0.5,2.1,0.1,1.6,1.7C1040.1,196.3,1039.6,195.7,1040.1,194.1z
			 M1038.7,194.8l-1.4,1.4c-1.2,0-2.4,0-3.6,0c0-0.3-0.1-1.1-0.1-1.4C1035.3,194.4,1037.2,193.2,1038.7,194.8z M1029.5,193.5
			c1.2,1,0.8,2.4-0.4,3.2C1027.1,195.9,1027.5,193.6,1029.5,193.5z M1004.2,233.3c1-1.4,2.1-2.8,3.1-4.2c1.4,0.3,2.7,0.6,4.1,1
			c-0.9,1.2-1.8,2.3-2.7,3.4C1007.2,233.4,1005.7,233.4,1004.2,233.3z M1004.9,239c-1.2,0.9-2.6,2.6-3.2,0
			C1002.2,236.5,1003.7,238.1,1004.9,239z M1008.8,223c-1.2-0.6-2.4-1.3-3.5-1.9c0.4-1.3,0.9-2.6,1.5-3.9
			C1008.5,218.3,1008.2,221.2,1008.8,223z M1001.8,206.8c0-1.8,0.2-3.5,0.3-5.2c1.2,0.1,2.3,0.2,3.5,0.2
			C1005.5,204.1,1003.8,205.7,1001.8,206.8z M999.6,230.9c1.2,0.6,2.4,1.4,3.4,2.3c-1.1,0.1-2.2,0.2-3.4,0.2
			C999.7,232.8,999.6,231.5,999.6,230.9z M1000.9,260.1c1.7-5.1,3.2-12.4,9.5-13.3c2.8,2.6,4.8,5.9,6.9,9.1c-2,0.6-4.4,0.9-5.7,2.8
			c-1.3,1.9-1.6,4.2-2.2,6.3C1006.6,263.2,1003.8,261.6,1000.9,260.1z M1014.3,241.3c1.2,0,2.3,0.1,3.5,0.1
			c-1.1,0.9-2.1,1.7-3.2,2.6C1014.5,243.3,1014.4,242,1014.3,241.3z M1004.3,331.1c0.2-2.7,0.7-5.8,3.1-7.4c0,1.6,0.1,3.3,0.1,4.9
			C1006.5,329.5,1005.4,330.3,1004.3,331.1z M1006.5,273.1c0.7-2.3,1.4-4.6,2.2-6.8c2.3,0.3,5.4-0.8,6.8,1.6
			c1.4,2.1,1.1,4.7,1.3,7.1C1013.3,274.5,1009.9,273.8,1006.5,273.1z M1012.6,285.5c0.7,1.1-0.1,3.1-1.5,3
			C1008.8,287.9,1010.8,284.1,1012.6,285.5z M1011.1,315.9c0.2-2.2,0.5-4.4,0.7-6.5c0.8-0.1,1.7-0.1,2.6-0.2c0,1.8,0,3.7,0,5.5
			C1013.3,315.1,1012.2,315.5,1011.1,315.9z M1020.9,311.4c-0.2-1.1-0.4-2.3-0.6-3.4c1.7,0.5,3.3,1.1,5,1.8c0.1,0.4,0.3,1.3,0.5,1.7
			C1024,311.4,1022.5,311.4,1020.9,311.4z M1029.2,302.5c-1.9,0-3.8-0.1-5.7-0.2c0.2-2.5,1.2-4.9,0.8-7.4c-1.6-1.2-2.7,0.8-3.7,1.7
			c-1.5,1.7-2.6,3.7-3.8,5.6c-0.8-1-3.3-1.5-2.3-3.2c2.3-2.8,5.1-5.1,7.5-7.8c2.1,0.3,4.1,0.6,6.2,1.1c0.7-0.3,1.3-0.7,2-1
			c0.7,1.9,1.3,3.8,2,5.7C1031.2,298.8,1030.2,300.6,1029.2,302.5z M1024.2,254c0.5,1.4-2.1,2.5-2.6,1
			C1021.1,253.5,1023.6,252.5,1024.2,254z M1025.4,259.2c1-1.4,3.7,0,2.5,1.6C1026.9,262.1,1024.2,260.7,1025.4,259.2z
			 M1028.5,282.1c0.1-0.4,0.4-1.1,0.6-1.5C1032.4,278.8,1030.4,285.1,1028.5,282.1z M1022,228.8c-2-0.4-3.9-0.8-5.8-1.4
			c2.2-4.5,4.8-8.7,7-13.2c4.1,0.9,8.1,2.2,12,3.6C1030.7,221.3,1024.7,223.4,1022,228.8z M1037.1,268.7c0.7,2.6,1.4,5.2,1.8,7.9
			c-0.5-0.1-1.6-0.2-2.1-0.3c-0.6-2.6-1-5.2-1.1-7.9C1036,268.5,1036.7,268.6,1037.1,268.7z M1036.4,328.4c1.3-3,4-5.6,7.6-5.3
			C1043.1,326.6,1039.3,327.5,1036.4,328.4z M1042.3,292.6c-0.7-0.4-1.3-0.8-1.9-1.2c0.2-3.1,0.7-6.2,1.1-9.3c1.1,0.3,2.2,0.6,3.3,1
			C1044.2,286.3,1043.3,289.5,1042.3,292.6z M1049.5,263.7h2c0,1.2,0.1,2.4,0.1,3.6c-1.6,0-3.2-0.1-4.8-0.1
			C1047.6,266,1048.5,264.8,1049.5,263.7z M1056.1,284.2c-1.5,0-3,0-4.4,0.1c-0.5-1.5-0.9-2.9-1.4-4.3
			C1052.7,280.6,1054.9,282,1056.1,284.2z M1060.7,308.2c-3.1-0.6-4,2.2-4.7,4.6c-0.5-0.1-1.5-0.4-2-0.6c-1.3-4.2-2.1-8.6-3.5-12.9
			c3.2-2.1,6.9-0.2,10.1,0.9C1060.8,302.9,1060.6,305.5,1060.7,308.2z M1132.6,237.2c0.2,4.3-0.9,9-3.9,12.3
			C1128.7,245.2,1128.1,239.4,1132.6,237.2z M1130.4,224c0.7,1.7-2.1,2.7-2.7,1C1127,223.3,1129.9,222.2,1130.4,224z M1120.4,251.2
			c1-1.3,3.7,0.1,2.5,1.6C1121.9,254.1,1119.2,252.7,1120.4,251.2z M1118.2,238.1c1.6-0.5,2.1,0.1,1.6,1.8
			C1118.1,240.4,1117.6,239.8,1118.2,238.1z M1112.4,188.4c1.6,0.9-1,3.8-2.4,3.2C1109.5,190.1,1111.1,188.6,1112.4,188.4z
			 M1101.8,205.1c1-2,0.6-4.2,0.5-6.3c1.7,0,3.9-1,5.1,0.7c2.5,3,2.8,7.2,3.3,11c-3.5,0.4-7.7,1.5-8.3,5.6c-3.4-0.3-7.6-1.4-8.1-5.4
			c2.8,0.2,5.5,0.7,8.3,1.2C1102.5,209.5,1102.7,207.2,1101.8,205.1z M1076,193.8c-2.7,0-4.8-2.4-5-5
			C1073,190,1074.7,191.8,1076,193.8z M1067.2,282c-1.3-1.4-2.5-2.9-3.4-4.5c2.4-0.1,4.8-0.1,7.2,0
			C1069.7,279.1,1068.5,280.6,1067.2,282z M1071.9,263.2c0.4-2.1,1.8-4.2,4.2-4C1075.1,260.9,1073.8,262.4,1071.9,263.2z
			 M1088.9,276.4c-1.9,0.2-3.9,1.1-5.8,0.7c-1.8-0.9-3.6-2.1-5.7-1.7c0.1-0.8,0.2-2.5,0.2-3.4c1.4-0.6,2.8-1.4,4.3-1.9
			C1085.2,270.7,1089.7,272.3,1088.9,276.4z M1091.3,267.2c-0.5,0.1-1.6,0.2-2.2,0.2c-0.2-1.4-0.1-2.9,0.6-4.1
			c0.4,0.3,1.3,0.9,1.7,1.1C1091.3,265.4,1091.3,266.3,1091.3,267.2z M1099.1,264c1.8-1.4,3.6-2.7,5.5-3.9c0.5,2.9-0.4,5.7-1.9,8.2
			C1101.5,266.8,1100.3,265.4,1099.1,264z M1103.9,275.6c-0.5-1.2-0.9-2.5-1.4-3.7c1.2-1.2,2.4-2.4,3.6-3.5c0.9,1.3,1.8,2.5,2.7,3.8
			C1107.5,273.7,1106,275.3,1103.9,275.6z M1107.8,259.2c-8.5-1.8-17.2-0.4-25.8-1.5c-4.7-0.1-9.5-1.1-14,0.2
			c-1.3-0.2-2.6-0.5-3.8-0.7c-0.1-7.1,0.1-14.2-0.1-21.3c0-3.7-2.1-7.1-1.8-10.8c2.2-3.3,1.9-7.2,1.9-11c5.2,0.7,10.4,1.8,15.7,2.3
			c2.2-2.1,4.7-4.1,7.9-4.6c0,0.6-0.1,1.8-0.1,2.4c-2,0.4-4.8,0.3-4.7,3.2c3,0.3,6.2,0.4,9.1,1.5c3.5,1.4,7.3,1.1,10.9,2.3
			c5.2,1.6,9.7,5.3,12.5,9.9c-0.8,1.5-1.7,3.1-1.2,4.9c1,7.8,2.1,15.6,3.1,23.4C1114.2,259.1,1110.8,257.4,1107.8,259.2z
			 M1117.3,272.9c0-1.1,0-2.3,0.1-3.4c0.5,0,1.6,0,2.1,0.1c0,1.1,0,2.2,0.1,3.3C1119,272.8,1117.8,272.9,1117.3,272.9z M1129,266
			c-3.2-0.4-6.3-1.2-9.5-1.9c-0.3-2,1-3.4,2.2-4.8c2.2,0.8,4.4,1.5,6.6,2.3c0.9-0.6,1.9-1.1,2.8-1.7C1130.5,262,1129.8,264,1129,266
			z M1132.4,283.2c-0.5-1.9,0.1-4,2.4-4C1134.1,280.6,1133.2,281.9,1132.4,283.2z M1136.5,276.3c-1.1,0.4-2.1,0.8-3.1,1.3
			c-0.1-1.1-0.1-2.2-0.2-3.3c1.1,0,2.2,0,3.3,0.1C1136.5,274.8,1136.5,275.8,1136.5,276.3z M1137.2,259.3c1.4-2.1,3.2-3.9,5.1-5.5
			c0.7,1.8,1.2,3.7,1.8,5.6C1141.8,259.4,1139.5,259.4,1137.2,259.3z M1309.7,295c0.1-7,0-14,0-21.1c-7.1-5-14.8-9.2-22.6-13
			c-1.4-0.6-2.7-1.5-4.3-1.5c-0.2,0.6-0.5,2-0.7,2.6c-2.7-5.4-8.2-8.3-13.3-11.1c-7.1-3.9-14.9-6.7-21.9-10.8
			c-6.9-3.6-13.6-7.7-20.7-11c-1.5,3.4-4.2,6.9-8.3,6.4c-2.1,0.4-6.3-1.5-4.3-4c1.8-3.2,3.8-6.3,5.7-9.5c0-2.6,0-5.2,0-7.8
			c13.1-2,26.5-1.1,39.7-1.5c5.7,0,10.7-3,14.9-6.6c1.1,0.9,2.1,1.8,3.2,2.6c-0.5,1-0.9,1.9-1.3,2.9c7.4,0.1,14.8,0,22.2,0.1
			c2.7,0.1,5.3-0.5,7.8-1.4c-2.7-2.3-0.5-5.3-0.2-8c-2.3,0.3-4.6,0-6.8-0.8c-0.5,2.2-0.9,4.9-3.1,6c-3.4,1.6-7.3,0.8-10.9,0.9
			c0-1,0-1.9,0-2.9c1-0.5,2.1-1,3.1-1.5c-1.6-4.7,0.6-9.2,3.8-12.6c3.4,0.8,6.8,1.6,10.2,2.3c-1.1-5.7-2-11.6-4.9-16.8
			c-2.2-3.1-6.1-0.2-8.6,0.9l0.1-1.7c-0.4,0-1.2,0-1.6,0.1c1.4,2.5,3.1,4.9,4.9,7.1c-2.5,1.8-4.9,3.8-7.8,4.9
			c-2.1-0.6-1.7-3.3-2.5-4.9c-0.5,0-1.5,0.1-2.1,0.1c0,1.6,0,3.2,0,4.8c-3,0.6-4.3-2.2-5.2-4.4c1-3.1,2.5-6.1,3.3-9.3
			c-5.5-0.1-11-0.2-16.4-0.1c-1.4,0-2.2,1.4-3.2,2.1c-0.8-0.7-1.5-1.4-2.3-2.1c-26.5-0.1-53.1-1.7-79.6-0.9
			c-4.1,4.6-7.5,9.9-9.8,15.6c2,0.5,4,1,6,1.4c-0.8,1-1.7,2.1-2.5,3.1c-1.2-1.2-2.4-2.4-3.6-3.6c-1.9,1.5-3.8,3.2-4.1,5.8
			c-0.5,5.3-0.2,10.6-0.2,15.9c2.3,2.7,3.8,6,4.8,9.5c-1.5,1.9-3.2,3.6-4.9,5.3c0,5.2,0,10.4,0,15.6c2.9,2.4,5.5,5.1,8.6,7.4
			c1.3,0,2.7,0,4-0.2c6,7.5,14.5,12.5,22.3,17.9c15.2,9.5,29.5,20.2,44.3,30.4c-0.3,3.8-0.6,7.6-1.3,11.4c-2.3,0-4.6,0.1-6.8,0.2
			c-0.4,1.8-0.8,3.6-1.2,5.4c-3.3,0.8-3.7-2.1-4.3-4.5c-15.1-0.3-30.2,0.5-45.2,1.9c-6,0.4-12,0.9-17.9,2.3
			c0.6,4.2,2.3,8.2,2.3,12.5c0.1,5,0.9,10.4,4.3,14.3c1.9,2.2,4.9,2.8,7.7,3.2c0.4-0.3,1.1-0.9,1.4-1.2c1.5,3,2.4,6.6,5.2,8.8
			c7.3,0.4,14.7,0,22,0.2c2.9,0.2,5.8-0.4,8.3-1.8c0.2-0.6,0.5-1.7,0.6-2.3c1.4,0.2,2.8,0.4,4.2,0.7c0.7-6.4,7.7-7.9,13-8
			c3,2.2-0.2,5.5-2.8,6.2c0.8,1.3,1.6,2.6,2.4,3.9c15.1-0.4,30.1-1.3,45.2-2.2c5,0,9.6-2.5,13.7-5.1c6-3.9,11.3-8.6,16.4-13.5
			c0.8-0.8,1.9-1.6,1.7-3c0-9,0.1-18-0.1-27c-2.3,0.4-4.5,0.9-6.8,1.1C1304.1,298.2,1309.7,298.9,1309.7,295z M1304,281.1
			c1.6-0.5,2.1,0.2,1.5,1.8C1303.9,283.4,1303.4,282.8,1304,281.1z M1268.1,196.5c1.2-0.6,3,1.2,2.4,2.4
			C1269.2,199.6,1267.3,197.7,1268.1,196.5z M1261.6,194.9c0.4,0,1.2-0.1,1.6-0.1c0.6,2.3-2.5,4.6-4.7,4.8
			C1257.4,197.4,1260.2,195.9,1261.6,194.9z M1248.7,191.5c0,0.6-0.1,1.8-0.1,2.5c-2.6,2.5-5.1,5.2-7.8,7.6
			c0.3-3.9,4.2-6.3,4.8-10.1C1246.7,191.5,1247.7,191.5,1248.7,191.5z M1240.2,178.6c1,2,2,4,2.9,6c-1.9,0-3.8,0-5.6,0
			c-0.4-2.4-0.8-4.7-1-7.1C1237.7,177.9,1238.9,178.2,1240.2,178.6z M1186.5,215.3c1.3,0.5,3.5,0,4.1,1.5c-0.6,0.6-1.1,1.3-1.7,1.9
			c-0.6,0-1.8-0.1-2.4-0.1C1186.5,217.5,1186.5,216.4,1186.5,215.3z M1173.1,238.6c-1.3,0.9-2.9-1.2-1.7-2.2
			C1172.6,235.5,1174.3,237.6,1173.1,238.6z M1174.2,192.9c1.1,0.6,2.2,1.2,3.4,1.9c-0.3,2.6-0.7,5.2-1.8,7.6
			C1174.6,199.3,1174.4,196.1,1174.2,192.9z M1177.4,208.7c2.3,1.5,4.2,3.6,3,6.5c-0.5,0.1-1.4,0.5-1.9,0.6
			C1178.2,213.5,1177.7,211.1,1177.4,208.7z M1188.6,246.1c0.7-1.1,1.6-1.2,2.8-0.5c0.1,0.5,0.2,1.5,0.2,2
			C1190.5,248.5,1188.5,247.5,1188.6,246.1z M1184.1,236.6c-1.6-3-3.7-5.7-5.2-8.8c-1-1.6,0.1-4.4,2.2-3.6c1.2,2.9,1.3,8,5.5,7.8
			c0.7-2.2,1.4-4.4,2.1-6.6c1.9,0.4,3.8,0.8,5.7,1.1c0.3,3.9-0.9,7.6-2.2,11.1C1190.2,234.9,1187,236,1184.1,236.6z M1192.4,261
			c0.6-2.5,1.3-4.9,2.1-7.4c0.6,0,1.8,0.1,2.3,0.1C1196.9,256.9,1194.4,258.9,1192.4,261z M1204.5,238.8c0.2,3.2,0.2,6.3,0,9.5
			c-1.1,0.2-2.3,0.4-3.4,0.6C1201.4,245.4,1201.2,241,1204.5,238.8z M1206.8,268.6c-1.1-0.4-2.2-0.9-3.3-1.3c0-1.2,0-2.3,0-3.5
			C1205.8,264.4,1207.3,266.1,1206.8,268.6z M1205.2,203c3.3,0.3,5.5,3.2,6.8,6C1209.2,207.8,1207.1,205.4,1205.2,203z
			 M1211.5,252.5c-0.6,0-1.7,0-2.3,0c1-1.4,1.9-2.8,3.1-4.1c1.2,0.3,2.3,0.7,3.5,1.1C1214.3,250.5,1212.9,251.5,1211.5,252.5z
			 M1169.5,331.6c0-0.5,0-1.6,0.1-2.1c0.5,0,1.6,0,2.1,0c0,0.6,0,1.7,0,2.2C1171.2,331.7,1170.1,331.7,1169.5,331.6z M1179.8,334.2
			c-1.8-0.6-3.1-2-4-3.6c1.7,0,3.3,0,5,0C1180.5,331.8,1180.1,333,1179.8,334.2z M1182.6,334c-1.5-0.9-1.4-1.7,0.1-2.5
			C1184.1,332.4,1184.1,333.2,1182.6,334z M1195.8,331.8c-2.4-0.8-5.5-1.9-5.5-4.9c3.1-0.3,6.2-0.6,9.4-0.3c0,0.5,0.1,1.5,0.1,2.1
			C1198.4,329.7,1197.1,330.8,1195.8,331.8z M1212.6,345.5c-0.6,0-1.8-0.1-2.5-0.2c1.2-2.4,3-4.7,6-4.1
			C1215.1,342.7,1213.9,344.1,1212.6,345.5z M1226.7,324.2c-0.7-1.3-0.3-2.9-0.4-4.3c2,1.8,3.7,4,5.4,6.1
			C1230,325.6,1228.1,325.4,1226.7,324.2z M1260.8,254.9c-0.3,3.1-0.5,6.1-0.2,9.2c0.5,2.2-2.3,2.7-3.8,2c-0.7-2.1-1-4.4-1.3-6.6
			C1256.9,257.6,1258,255,1260.8,254.9z M1257.3,274.3c0.6,1.7,1.4,3.4,2.4,4.9c-0.3,1.1-0.6,2.1-0.8,3.2c-1.8-1.1-3.6-2.5-4.7-4.3
			C1255.2,276.7,1256.3,275.5,1257.3,274.3z M1259.7,295.9c-4.2-2.6-0.5-8-1.1-11.8c1.2-0.1,2.5-0.1,3.7-0.1
			c1.3,2.1,1.3,4.8,1.3,7.2l-0.4-1.1c-1.2,1.8-2.5,3.4-3.9,5L1259.7,295.9z M1247.1,276.9c-2.3-0.1-2.9-2-2.9-4
			C1245.3,274.1,1246.4,275.4,1247.1,276.9z M1247.8,300.3c-0.2,1.1-0.4,2.2-0.6,3.2c-1.3-0.3-2.7-0.7-4-1c0-0.6,0-1.8-0.1-2.3
			C1244.7,300.2,1246.2,300.2,1247.8,300.3z M1239.7,241.2c0,3.5,0.1,7-0.2,10.5c-2.1-3.8-1.5-8.5-2.1-12.7
			C1238.2,239.8,1238.9,240.5,1239.7,241.2z M1225.6,254.3c1.7,1.2,3,3,3.1,5.2c-1.9-0.4-3.8-0.8-5.7-1.1
			C1223.5,256.9,1223.3,254,1225.6,254.3z M1223.9,278.8c-1,1.3-3.7,0-2.5-1.5C1222.3,275.9,1225.1,277.2,1223.9,278.8z
			 M1229.6,274.2c0,1.4-0.1,2.8-0.1,4.2c-1.4-1.2-2.6-2.5-3.7-3.9C1227,274.3,1228.3,274.2,1229.6,274.2z M1229.1,283.4
			c-1.4-0.1-2.5-1.9-1.8-3.1c0.5,0.1,1.5,0.3,2,0.4C1230.2,281.8,1230.1,282.7,1229.1,283.4z M1237.7,290.8
			c-1.6,0.5-2.1-0.1-1.6-1.7C1237.7,288.6,1238.2,289.1,1237.7,290.8z M1236.5,268.7c-0.8-2.9-1.4-5.9-1-8.9c0.4,1,0.8,1.9,1.2,2.9
			c3.5-0.1,8.8-1.1,10,3.4C1243.4,267.3,1240.1,268.5,1236.5,268.7z M1246.1,344.5c-1-1.1-2.2-2.1-3.4-2.9c1.7-3.9,2.9-8.1,2.8-12.4
			c-0.9,0.3-2.8,0.9-3.7,1.2c-1.1-0.7-2.2-1.4-3.2-2.1c0.4-1,0.7-2,1.1-3.1c2.3-0.5,4.6-0.5,6.9,0c-0.1,1.4-0.1,2.9-0.1,4.3
			c1.9,0.6,3.8,1.1,5.7,1.5c0.3,0.5,1,1.3,1.3,1.8C1252,337.2,1250.7,342.3,1246.1,344.5z M1253,317.9c-0.3,0.7-0.8,2-1.1,2.6
			c-2.8-0.5-5.3-1.8-7.7-3.3c0.4-2,0.8-4,1.3-6c3.4,0.4,6.5,1.7,9.1,3.9l-0.6,0.9c0.7,0.1,2,0.4,2.7,0.5c0.6-3.4,4.3-4,6.9-5.2
			C1262.9,316.5,1257.1,317,1253,317.9z M1264.3,274.1c-0.6,0.4-1.7,1.2-2.3,1.6c-0.9-1.5-1.8-3-2.8-4.5c0.6-1.3,1.2-2.5,2-3.8
			C1262.7,269.4,1265.3,271.3,1264.3,274.1z M1290.1,268.3c1.6-0.5,2.2,0.1,1.7,1.7C1290.3,270.5,1289.7,269.9,1290.1,268.3z
			 M1289.6,271.9c1.4,1.3,2.8,2.6,3.5,4.5c-1.2,0-2.4,0-3.6,0.1C1289.5,274.9,1289.5,273.4,1289.6,271.9z M1296.9,292.6
			c-1.3,1.4-2.7,2.8-4,4.1c-0.9-1.8-1.8-3.7-2.6-5.5C1292.5,291.4,1294.7,291.8,1296.9,292.6z M1282.7,282.2
			c0.5,2.2,0.9,4.4,1.2,6.6c-3.7-1-7.4-2.1-11.1-3.2c0.9-1.2,1.9-2.3,2.9-3.4C1278,282.1,1280.4,282.1,1282.7,282.2z M1281.6,311.2
			c-0.7-0.8-2-1.2-2.1-2.3c-0.3-3.5-0.2-7,0.1-10.4C1281.7,302.4,1281.2,307,1281.6,311.2z M1275.9,277.2c-1.1-0.4-2.2-0.9-3.3-1.4
			c-0.1-0.7-0.2-2-0.2-2.7C1275.2,272.1,1275.6,275.3,1275.9,277.2z M1306.4,316.9c-2.3,3.6-3.9,8-7,10.9c-1.4-1.6-2.6-3.3-4.3-4.5
			c-7.6,5.5-15.2,11.1-23.7,15.3c0-3.1-0.1-6.3,0-9.4c1.7,0.9,3.4,1.9,5.3,2.6c0.7-3.4,1.2-6.9,2.8-10c-0.3-0.4-1-1.1-1.3-1.5
			c2.4-0.2,4.6,0.6,4.8,3.4c3.5-1.3,7.2-2.6,10.8-1.1c0.6-2.7,0.3-6.4,3.3-7.7C1300.3,314.1,1303.8,314.7,1306.4,316.9z
			 M988.4,163.7c-0.1-3.4-0.1-6.8,0-10.2c-1.3-1.1-2.6-2.4-4.4-2.1c-7.1,0.2-14.3-0.4-21.4,0.3c-2.1,2.8-2.8,6.4-3.6,9.7
			c-3.7,0-7.5,0.5-11.1-0.2c-1.8-1.6-2.7-4-3.6-6.2c0.5-1.2,0.9-2.4,1.3-3.6c-2.4-0.1-4.8-0.1-7.2,0c-2.7,2.8-5.4,6.9-9.9,5.6
			c-0.3-1.8-0.7-3.6-1.1-5.4c-3-0.2-5.9-0.2-8.8-0.2c-0.7,1.7-1.7,3.3-3.7,3.6c-0.2-0.8-0.5-2.5-0.7-3.3c-3.6-0.4-7.2-0.3-10.8-0.2
			c-1.9,1.9-3.8,3.8-5.6,5.7c-1.8-0.7-3.5-1.6-5.3-2.4c-0.1,1.4-0.5,2.6-1.2,3.7c-1.2-0.2-2.5-0.6-3.6-1.1c-0.2-2-0.5-4.1-1.2-6
			c-12.1-0.2-24.2,0.3-36.3-0.1c-0.8,1.1-2.1,2-1.9,3.6c0,14.9-0.1,29.7,0,44.6c1.7,1.3,3.3,2.8,4.9,4.3
			c5.7-5.9,10.7-12.5,17.1-17.6c1.7,2.3,1.6,5.1,1.5,7.8c-0.9-0.6-1.7-1.2-2.6-1.7c-0.5,0.5-1.4,1.5-1.9,2c0.1,1.1,0.2,2.3,0.3,3.5
			c-0.2,1.7-0.3,3.4-0.3,5.2c-1.7-0.5-3.4-1.7-5.2-1.4c-4,1.4-6.9,4.9-7.7,9.1c-2,1.3-4.2,2.5-6,4c-0.5,3.2-0.2,6.5,0,9.7
			c0.8,0.2,2.2,0.7,3,0.9c0.8,2.2-1.4,2.3-3,2.8c-0.6,22-0.1,44.1-0.2,66.2c1.8,1.5,3.7,2.9,5.5,4.4c-0.1,0.5-0.2,1.4-0.3,1.8
			c-1.3,0.5-2.7,0.9-4,1.4c-0.2,22.1-0.2,44.2,0,66.3c-1.7-0.8-3.4-1.4-5.2-1.9c0,3.7,0.9,7.3,1.6,11c-0.4-0.5-1.3-1.5-1.7-2
			c-3.4,1.6-6.6,3.5-10.1,4.8c-1.7-2.7-3.5-5.3-4.9-8.2c1.7-1,4-1.7,4.7-3.7c0.8-1.7,0.4-3.7,0.6-5.6c-3.5,0.2-6.9,1.3-10.4,1.5
			c-1.9-0.2-2.5-2.4-3.5-3.7c0.8-1.3,1.6-2.7,2.4-4c1.1,0.8,2.2,1.7,3.3,2.6c5.9-1,11.7-2.2,17.6-3.3c-0.4-1.6-0.8-3.2-1.2-4.8
			c-6.7,1.9-13.7,2-20.5,2.7c-6,0.5-12-0.7-18-1.4c-2.4,0.4-4.5,1.7-6.3,3.2c-0.4,1.5-0.8,3-1.2,4.5c-6.8-2.1-13.9-3.3-20.7-5.2
			c-0.1-1-0.2-2-0.3-3c4.8-0.8,9.6-0.4,14.5-0.7c10.7-0.2,21.4-1,32-1.1c2.5,0.1,4.7-1.3,6.9-2.3c-0.2-2.3-0.4-4.6-2.2-6.2
			c-0.2-5.1-0.1-10.3-2.3-15.1c-0.9-0.8-1.7-1.6-2.6-2.4c0.7-0.2,2.2-0.8,3-1c-1.3-10.1-0.8-20.4-2-30.5c-0.1-2.5-2.3-4.2-3.7-6
			c4.2,0,2.3-5.2,2.8-7.9c-2.2,0.3-4.5,0.6-6.7,0.9c0.6-1.6,2.1-3.3,0.9-4.9c-1-2.3-3.4-3.5-5.6-4.3c3.4-2.3,6.1-5.9,10.4-6.5
			c-0.3-15.4-1.2-30.8-1.6-46.2c-0.7-4.7,0.2-9.6-1.1-14.2c-1.5-1.7-2.8,1-4,1.7c-4-0.1-8.8-0.5-11.3-4c-1.8-2.7-1.2-6.2,1.2-8.2
			c4.6,1.2,9.1-0.1,13.5-1.3c0-4.7-0.1-9.4-0.6-14.1c-0.5-5.5,0.5-11.3-1.5-16.6c-11.8,0.7-23.6,1.8-35.4,2.5
			c-4.8,0.8-9.8,0-14.4,1.5c-0.2,8.6-1.1,17.2-1.1,25.8c3.8,0.7,7.5,3.1,7.6,7.3c-2.4,1.4-4.6,3-6.3,5.2c-2.2,2.2-1.2,5.4-1.5,8.2
			c-0.8,12.4-0.7,24.8-1.1,37.2c1.1,0.5,2.2,1,3.3,1.5l-0.8,0.8c1.3,2.4,2.4,5,3.2,7.6c-3.1-2-4.6-5.4-5.4-8.9
			c-9.6,2.3-19.8,0.3-29.5,2.3c-0.1,2.3-0.4,4.7-3,5.5c-0.8-3.4-3.3-5.8-6.2-7.5c-0.6-7.7-1.4-15.3-2.5-22.9
			c-0.9-4.7-1.3-9.7-4.2-13.7c-2.5,3.1-1.3,7.5-2.5,11.2c-1.8-1.1-3.6-2.3-5.3-3.6c-2.4,1.3-5,2-7.7,2.2c-0.7,1.8-0.7,4-2.3,5.3
			c-2.4,1.8-5.6,1.4-8.4,1.5c-0.2-1-0.3-2-0.4-3c1.9-2.9,2.8-6.5,5.3-9c2.7-1.7,3.4,2.2,4.5,3.9c6.2-4.5,12.7-8.7,18.8-13.4
			c0-3.4,0.2-7.1-1-10.3c-0.8-0.1-2.3-0.2-3-0.2c0.7-1.8,1.8-3.4,3.3-4.7c-1.2-2.7-1.3-5.6-1.2-8.5c-1.7-0.6-3.6-1-5-2.1
			c-0.5-1.6-0.3-3.2-0.4-4.8c1.4,0.5,2.9,1,4.3,1.5c0.1-1.8,0.1-3.7,0.1-5.5c-10.3-0.4-20.5,0.9-30.7,1.5c-8.6,1-17.3,1.2-25.5,4
			c-0.3,7.1-0.1,14.2-0.2,21.2c-0.1,3.2,1.3,6.1,2.2,9c-1.5,2-2.9,4.3-2,6.9c1.3,3.1,3.1,6,4.9,8.9c0.4,1.3,1.9,0.8,2.9,1.1
			c0.7-2.3,1.5-4.5,2.4-6.8c2,1,5.4,2.2,3.6,5c0.9,2.3-0.4,4.4-1.5,6.3c-1.5-0.8-3-1.5-4.5-2.2c-1,0.2-2,0.4-3,0.5
			c-1.9-1.6-2-4.8-4.6-5.6c-0.3,6.3,0.1,12.5,0.2,18.8c0.8,24.1,1.2,48.3,1.9,72.5l2.2,1.8c-0.7,0.9-1.5,1.7-2.2,2.5
			c0.4,6.4,1.7,12.8,0.2,19.1c-1,2.9,2,5.1,1.8,8c-1,2-2.1,3.9-2.3,6.2c-3.3-0.4-6.4-1.7-9.2-3.3c-3.5-0.1-6.9,0-10.4-0.1
			c-3.5,1.9-5.7,5.5-5.3,9.5c-2.6-0.7-3.6-3.3-4.3-5.6c-0.8,0.1-2.3,0.2-3,0.3c0.2,2.9,0.6,5.7,1.5,8.5c4.8,0.8,9.9,1.6,14.1,4.2
			c2.3,1.4,1.8,4.4,2.2,6.7c-1.5,0.7-2.9,2.1-4.5,2.2c-4.3-3.9-10.4-3.8-15.8-3.7c0.4-2,0.7-4,1-6c-1.9-2.8-3.6-5.7-5.7-8.3
			c-0.6,0.1-1.7,0.2-2.2,0.3c-1.4,3.1,1.4,5.8,2.1,8.7c0.3,3.1,0,6.2-0.3,9.2c-1.3-0.9-1.7-2.3-2.1-3.7c-3.2-0.3-6.5-0.2-9.5-1.4
			c-1.7-1.1-3-2.5-4.4-3.9c1.8-3.4,3-7.2,2.2-11.1c-3.1-0.2-6.3,0.2-9.2-0.8c-1.1-1.3-0.5-3.4-0.8-5c-2.8,0-5.7,0.1-8.5,0.1
			c1.5,1.9,3.1,4,3,6.6c-3.5,0.7-7.2,0.9-10.6,2.2c-2.8,2.8-4.4,6.6-7.3,9.2c-3.2-1.1-4.7-3.9-4.9-7.2c2.2-0.5,4.4-0.9,6.6-1.3
			c-0.2-2.4-0.9-4.7-1.6-6.9c0.5-1,1-1.8,1.6-2.7c-3.4,0.2-6.9,0.1-10.3,0c1.9-13.4,2.8-27,3.6-40.5l-1.4-1.1
			c-0.4,0.8-1.2,2.5-1.6,3.3c-0.3-0.6-0.6-1.1-0.9-1.7c5.6-8.2,4.8-18.7,5.1-28.1c2.2-0.4,5,0.7,6.9-0.8c0.8-1.8,0.9-3.7,1.2-5.6
			c1.2,0.6,2.4,1.2,3.6,1.8c2.7-0.3,4.9-3.9,7.7-2.6c0.8,2.5-2,4.5-3.4,6.4l0.3,1.8c9.1,0.3,18.1,1.1,27.2,1.1
			c4.3,0.1,7.3-3.3,9.7-6.4c-0.2-0.9-0.5-2.8-0.7-3.7c1.7,0.4,3.3,1.2,5.1,1.1c4.6-3.6,9-7.3,13.4-11.1c0.6-5.8,0.1-11.7,0.3-17.5
			c0.4-1.9-1.1-3.2-2.3-4.4c-3.7-0.5-7.1,0.8-10.2,2.6c-0.2-4.2,2.4-7.8,5.6-10.2c0.5-4-1.7-7.7-5.8-8.5c1.5-2.5,2.9-5,4.8-7.3
			c3.2,1,5.9,3.2,6.9,6.5c0.5,0,1.5,0.1,2,0.1c-0.2-6,0.8-12,1.1-18c-0.6-0.1-1.8-0.2-2.5-0.2c2.8-3.3,2.8-7.5,2.2-11.6
			c-1.2-0.3-4.5-0.8-2.6-2.6c4.2-3.9,3.3-10.1,4-15.2c0.5-3-0.1-5.9-0.9-8.8c-3.5,1.5-6.8,3.4-10.2,4.8c0.2-3,2-5.4,3.9-7.7
			c2.5,0.6,5,0,7.4-0.7c-0.1-3.3-0.1-6.7,0-10c-1.1-0.7-1.9-2.2-3.3-2.2c-7.5-0.1-15,0-22.4,0c-2,3.1-2.9,6.7-3.9,10.1
			c-3.7,0-7.3,0-11,0c-1.2-1.8-2.6-3.5-3.2-5.6c0-1.5,0.6-3,0.5-4.5c-2.2-0.1-4.6-0.3-6.8,0.2c-2.9,2.5-5.3,6.5-9.8,5.5
			c-0.4-1.9-0.8-3.7-1.2-5.6c-3-0.2-5.9-0.2-8.9-0.2c-0.7,1.6-1.6,3-3.3,3.6c-0.4-1.2-1-2.3-1.7-3.4c-3.3-0.3-6.7-0.3-10,0
			c-2,1.6-3.6,3.7-5.6,5.2c-2.1,0.1-3.9-1.4-5.8-2c-0.1,0.9-0.2,2.8-0.3,3.7c-1.4-0.3-2.7-0.6-4.1-0.9c-0.3-2.1-0.7-4.1-1.2-6.1
			c-5-0.2-10-0.1-15-0.1c-0.2,0.2-0.6,0.7-0.7,1c-2-1.4-4.5-1-6.8-1c-4.7,0.3-9.4-0.2-14,0c-0.7,0.8-1.5,1.7-2.2,2.5
			c0,15.1,0,30.2,0,45.3c1.9,1.4,3.6,3,5.3,4.6c5.3-5.7,10.1-11.9,16.2-16.7c3.5,0.2,2.1,4.7,2.4,7c-0.9-0.7-1.8-1.3-2.7-2
			c-2.8,2.9-1,7.2-1.7,10.8c-1.7-0.5-3.4-1.5-5.2-1.4c-3.9,1.4-7,4.7-7.7,8.9c-2.2,1.5-4.4,3-6.6,4.5c0,3.2-0.3,6.4,0.7,9.5
			c0.7,0.2,2.1,0.5,2.8,0.7c0.9,2.2-1.1,2.4-2.7,2.7c-0.5,1.7-0.8,3.5-0.7,5.3c0.1,20.1-0.1,40.2,0.1,60.3c1.5,2.3,4.3,3.5,6,5.6
			c-0.8,1.8-3,1.8-4.5,2.6c-0.8,21.8,0,43.7-0.5,65.5c-3.3-2.4-6.5-4.9-9.6-7.6c-0.8,0.1-2.4,0.3-3.3,0.4c-0.8-1.7-2.2-3-3.7-4
			c2.2-0.7,4.6-1.2,6.8-2c1.8-0.9,1.4-3.1,1.8-4.7c-2.4,0.7-4.8,1.5-7.1,2.3c-1.2-3.6-0.9-7.5-1-11.2c1.6-1,3.3-1.9,5.1-2.4
			c1.1,1,2.2,2.1,3.4,3c0.2-8.8,0-17.5,0.1-26.3c-2.7-2.5-5.3-4.9-8-7.3c-1.6,0.9-3.9,1.2-5.1,2.6c0.4,3,1.6,5.9,2.5,8.8
			c-1.4-0.1-2.8-0.2-4.2-0.2c-0.2-4.5-0.9-9.5-4.4-12.6c-0.9-1.1-2.4-0.7-3.6-0.8c0.9,8.9,1.9,17.8,2.8,26.8
			c0.2,1.6-0.4,3.1-0.8,4.7c-4.6-2.1-9.1-4.6-14-5.8c0,1.9,0,3.8,0,5.7c5.2,1.5,10.5,2.2,15.6,4.2c-1.2,2.9-4.2,0.7-6.4,0.8
			c0.2,0.9,0.5,2.7,0.7,3.6c-1.8-0.9-3.7-1.7-5.6-2.4c0.5,3.5,0.7,7,1.4,10.4c-0.4,1.2-0.7,2.4-1.1,3.6c3.2,1.9,6.4,4,9.6,5.9
			c-1.5,3.4-2.5,7.3-5.2,10c-1.6,0.6-3.2-0.1-4.8-0.2c-0.7-2.7-2.9-4.1-5.6-4.2c2-5.9,1.8-12.9-2.1-18c-0.7,1.2-1.3,2.4-2,3.6
			c-1.7-1.5-3.2-3.1-5.1-4.4c-1.6-0.5-2.8,1.1-4.2,1.6c2.1,4.1,5.2,7.6,7.5,11.6c-2,0-4,0-6,0.1c-0.2-1.9,0.4-4-0.5-5.7
			c-3.4-1.5-7-2.8-9.9-5.2c1.7-0.5,3.5-0.9,5.2-1.4c-0.7-0.6-1.3-1.2-2-1.9c-1.6,0-3.3,0-4.9,0c0.2-4-0.4-8.8,2.9-11.7
			c3.5-1.2,6.2,2.6,9.2,3.9c-0.7-2.6-1.6-5.1-2-7.8c1.6-2.8,3.6-5.2,5.5-7.8c3,1.2,6,2.4,9,3.5c-0.6-2.2-1.3-4.4-1.7-6.6
			c2.4-2.8,3.5-6.4,4.4-9.9c1.5-2,3.5-3.6,5.2-5.4c-1.3-1.8-3.7-3.3-3.5-5.9c-0.1-2.3,0-4.6,0-6.9c2-0.3,4-0.7,6-1.1
			c-1.5-1.2-3.4-1.8-5.2-2c0.8-3.5,1.7-7,2.7-10.4c-2.4-2.6-5-5.2-8.4-6.6c0.1-3.7,3.1-8.8-1.3-11.1c-1.5,1.2-2.2,3-2.7,4.8
			c-1.8-1.4-3.5-2.7-5.4-3.9c-1.3-1.5-2.9,0.5-4.1,1c0,3.4,0,6.8,0,10.2c-2.5,0.6-5.1,1.3-7.6,2c1,2.6,2.3,5.2,2.8,8
			c-0.9,0.1-2.7,0.3-3.6,0.5c0.5,3.5,0.6,7,0,10.5c-2.9,0.2-5.4,1.9-6.1,4.8c-1-0.3-2-0.6-3.1-0.9c-0.5-6.1,0.8-12.1,1.5-18.1
			c0.6-3.5-0.8-6.8-1.5-10.2c1.5-1.1,3.2-1.6,4.9-2.4c-0.9-1.8-3.1-1.8-4.8-2.2c1.3-2.5,1.8-5.3,3.1-7.8c2.3-3.2,6.4-3.9,9.8-5.2
			c-2.1-1.9-4.9-2.8-7.6-3.7c1-3,1.6-6.1,2.2-9.2c1.8-0.1,3.5,0,5.2-0.2c1.8-0.7,2.4-2.7,3-4.3c-2-0.5-4-0.9-6-1.4
			c0.8-2.8,1.8-5.5,2.7-8.3c3,0.9,6.1,1.7,9.3,1.8c-2.1-3.2-4.9-5.7-7-8.9c0.2-3,1.6-5.6,2.6-8.4c3.2-0.3,6.4-0.9,9.3-2.1
			c-0.9-1.9-2.2-3.6-4-4.9c0.6-1.9,1.3-3.7,1.9-5.6c3.4,0.5,6.7,1.3,10,1.8c-1.6-2.3-4.8-3.9-5.2-6.7c1.9-8.2,6.2-15.5,9.8-23
			c-0.9-2-2-3.9-2.5-6c0.5-1.6,1.6-3,1.7-4.6c-1.6-0.8-3.4-1.3-5-2.3c-1.7-1.8-2.8-4-4.1-6.1c-3.6,0.4-4.7,4-5.3,7.1
			c-0.7-1.6-1.9-2.9-3.7-3c-0.3,2.1-0.8,4.1-1.6,6.1c-0.6,0.2-1.7,0.5-2.3,0.6c-0.9,8.5-2.2,16.9-3.8,25.2c-1,4.2-1.8,8.5-3.8,12.4
			c-0.7,1.8-2.5,2-4.2,2.1c1.3-2.9,4.9-5.3,4.5-8.6c-0.9-0.2-2.6-0.6-3.4-0.8c2.1-5.5,1.6-11.3,1.2-17.1c2-1.7,4-3.4,6-5.2
			c-1.5-1.3-3.5-1.6-5.3-1.9c0-2.7,0-5.4,0-8.2c0.9-1.3,2-2.4,2.7-3.8c0-3.1-0.5-6.3-0.4-9.4c1.2-0.4,2.5-0.7,3.7-1
			c0.2-1.2,0.3-2.4,0.3-3.5c-1-1.2-2.6-1.2-4-1.6c0.3-5.8,0.7-11.7,0.6-17.5c0.7-0.1,2.2-0.3,2.9-0.5c0.1-1.2,0.2-2.5,0.2-3.7
			c-1.5-0.3-3-0.7-4.5-1c0.5-1.6,1-3.2,1.5-4.9c-2.5-0.8-5-1.3-7.6-1.5c0.7-0.9,1.4-1.8,2.1-2.6c-0.8-1.1-1.8-2.1-2.8-3
			c-2.7,0.2-5.4,0-8,0.8c-0.7,0-2-0.2-2.7-0.2c-0.5,2.2-0.8,4.4-1.1,6.7c-0.4-0.3-1.2-0.8-1.6-1.1c-0.4,0.5-1.3,1.5-1.7,2
			c0.9,0.8,1.8,1.5,2.7,2.3c-1.2,1.9-2.5,3.8-3.4,5.8c-1.3,3.6-0.8,7.6-0.9,11.4c-1.9,0.5-6.1-0.5-5.7,2.5c2.1,2.1,5,3.9,5.5,7
			c0.4,4.1,0.1,8.2,0.1,12.3c-0.7,0.2-2.2,0.6-3,0.8c-1.8,2.6,1.1,3.1,3,3.9c0,2,0.1,4.1-0.1,6.1c-0.2,1.3-2.1,1.2-2.5,2.2
			c-0.8,1.9,1.6,1.8,2.7,2.4c-0.7,3.5-1.3,7-2,10.5c2.3,5.9,2.3,12.5,1.9,18.7c-1,0.6-2.1,0.8-3.2,1.2c0.3-2.1,0.5-4.2,0.1-6.2
			c-1,0.9-1.9,1.9-2.9,2.9c-1.5-1.1-3-2.3-4.4-3.4c0.2-2.7,0.6-5.4,0.5-8.1c-0.9-0.7-1.9-1.4-2.9-2.1c1.7-3.2,4.2-7.7,0.3-10.4
			c-1.9,0-3.8,0-5.8,0.1c-0.2-3.9,0.6-8-0.4-11.7c-2.4-1.6-3.3,2.4-4,4c-3.6,0.1-6.8-2.2-10.3-2c0.1,1.7,0.4,3.3,0.6,5
			c1,4.3-3.9,6.4-6.9,8.1c0.4,4.5,1.3,8.9,1.4,13.4c-1.6,0.8-4,0.6-4.9,2.5c2,0.9,4.1,1.2,6.2,1.4c0,2.9,0.2,5.8-0.1,8.7
			c-0.8,1.9-2,3.5-3,5.2c1.6,0.8,3.4,1.3,5.1,1.6c-0.3,4.1,0.8,8.2,4.3,10.8c-1.1,2.4-2.1,4.8-2,7.5c2.2-0.9,4.3-2.1,6.5-2.8
			c2.9,1.2,5.6,2.7,8.3,4.2c-0.7,2.8-0.8,5.7-0.8,8.5c1.6-1,2.9-4.1,5-2.7c3.2,2.3,7.4,5.1,7.1,9.6c-2.3,1.7-4.5,3.4-6.7,5.2
			c2.1,1.7,4.8,1.8,7.3,2.5c-2,0.9-4.1,1.4-6.2,2c1.1,0.7,2.2,1.4,3.4,2c0,3.5,0,6.9,0,10.4c-0.6,0.2-1.9,0.6-2.5,0.8
			c0.8,2.7,2,5.2,2.8,7.9c1,2.8,0,5.8-0.2,8.7c1.5,1.9,3.1,3.8,3,6.4c-1.4,0.2-2.8,0.4-4.2,0.7c0,1.5,0,2.9,0.1,4.4
			c2.1,0.5,4,1.5,4.2,3.8c-1.7-0.3-3.3-0.5-5-0.8c-2.5-10.8-3.8-21.8-7.3-32.3c-0.6-1.8-1.6-3.5-2.6-5.1c-0.1-1.8,0.9-4.3-1-5.4
			c-1.1-1-2.8-0.5-4.2-0.7c-0.4-1-0.8-2-1.2-2.9c-1.8-0.6-3.5-1.1-5.3-1.5c-0.5,1.7-1.1,3.3-1.7,5c-1.8,0.8-3.8,1.4-5.8,1.7
			c1.9,4.2,1.1,8.7,0,13c2.2,2.6,3.6,5.7,4.8,8.9c-0.5,0.5-1.4,1.5-1.9,2c3.8,2.6,6.8,6.1,8.6,10.4c-3.4,2.8-8.1,4.2-10.6,8
			c4.3-0.5,8.6-1.4,12.9-2.1c1.4,1.6,2.8,3.2,3.7,5.2c-1.9,0.9-3.7,1.6-5.6,2.4c0.1,0.5,0.3,1.4,0.4,1.8c3,0.6,6,0.7,9,0.7
			c1,3.6,2.5,7.1,3.2,10.8c-1.5,2.2-4.6,3-6.8,4.6c-3.7-0.5-7.4-1.1-11.1-1.3c-1.1,2.1-1.9,4.2-0.3,6.3c3.9-0.8,7.7-1.5,11.6-2.3
			c3.5,3.3,5,8.2,4.3,12.9c2.3,1.5,5.2,2.8,7.8,1.2c1.2,2.5,3.5,4.7,3.1,7.7c-0.5,1.3-1.9,1.5-3,1.9c-0.6-1.6-0.8-3.4-2.3-4.5
			c-3.6-0.4-3.2,4.3-3.9,6.6c3.3,3,8.1,1.2,12.1,2c0.3,7.2,4.8,13,7.6,19.3c-5.1,1.2-10.3,1.8-15,4c-3.8-0.8-6.7-4.3-10.7-4.3
			c-1.4,0-2.8-0.5-4.1-1c0.2-2,0.3-3.9,0.4-5.9c-2.2-0.6-2.6,1.6-3.2,3.2h-3.7c-0.2-1.9-0.4-3.8-1.5-5.5c-2.1-0.5-2.6,1.3-3.1,2.9
			c-0.5-0.2-1.5-0.5-2-0.6c-0.7,1.3-2.5,3.2-0.6,4.4c4,2.6,8.8,4.2,13.6,3.6c1.2,2.5,2.4,4.9,3.6,7.4c3.7,0.5,6.6,3.7,6.9,7.5
			c1.2,4.8,0.5,9.7,0.9,14.6c5.4,2.9,11.1,5.2,16.6,7.9c6.9-3.9,14.8-5,22.5-6.4c0.7,3.1,1.2,6.2,1.9,9.2c-7.8,3.8-16.5,6.9-22,13.9
			c-2.3,2.5-2.1,5.9-1.9,9c-10.9,0-21.7,1-32.5,1.2c-3.1,2.2-6.4,4.2-9.6,6.3c0.7,1.2,1.4,2.5,2.2,3.7c1.4,0.4,3-0.1,4.4-0.3
			c4.7-1.1,9.6-1.5,14.1-3.3c2.2-0.7,4.5-2.1,7-1.4c4.9,1,9.8,1.8,14.7,2.9c-0.2,2.7-0.4,5.4-0.2,8.1c3.3,3.1,6.4,6.3,9.7,9.3
			c0.8,1,2.1,1.6,2.3,3c-2.3,6.5-5.9,12.6-7.4,19.4c3.1-1.7,3.9-5.5,6.2-8c3.6-5,8.8-8.5,13.6-12.2c-0.1-3.7-2.2-7.3-5.3-9.3
			c-2.8-1.8-6.2-1.2-9.3-1.2c-0.6-4.2,2.3-7.6,3.4-11.5c0.5-2-0.8-3.3-2.3-4.3c4.6-1.4,5.5-6.5,5-10.7c1.9,0.3,3.3,1.6,4.8,2.7
			c0.4-0.7,1.3-2,1.7-2.7c1,0.5,1.9,1,2.8,1.5c1.6-0.3,3.1-0.7,4.7-1c1.5-3.1,0.9-6.5,0.7-9.8c1.7-0.3,3.3-0.7,5-1
			c0.9,4.4,2,9.9,7.1,11.2c0.3,8.9,1.3,17.8,1.6,26.7c1.5,0.9,3.2,1.6,4.3,3c1.3-0.3,2.6-0.6,4-0.9c1.4-3.2,3.3-6.2,4.5-9.5
			c0.1-1.8-1.1-3.4-1.8-5c-3.4-6.7-6.3-13.6-9.7-20.3c11.3-5,23.6-9.7,31.8-19.4c1.3-0.2,2.8-0.1,3.5,1.1
			c6.3,6.8,13.6,14.8,23.6,14.9c7.3-8.6,18.4-12.1,28.7-15.6c5.3,2.9,10.2,6.4,15.8,9c-0.2,4.2-0.8,8.4-1.1,12.6
			c6.5,3.5,13.2,6.5,19.7,10.1c-11.9,0.3-23.8,0-35.7,0.1c-3-4-6.7-7.5-11.4-9.4c-8.5-3.6-18.1-3-27-1.3
			c-6.7,9.4-17.5,14.4-27.7,19.1c2,7,4,14,6.1,21c1.2-0.2,2.4-0.4,3.6-0.6c0.3-6.1,0.3-12.3,1.4-18.4c5.1-1.8,10.4-4.3,13.5-8.9
			c1.5-2.2,1.4-5,1.7-7.6c2,0.1,3.6,1.2,5.3,2.1c3.7-0.1,7.4-1,11.1-0.8c4.3,0.9,8.8,2,11.8,5.5c3.7,3.8,4.4,9.3,5.6,14.2
			c-4.6,2.9-9.5,5.2-14.2,8c-1.3,0.6-2.6,1.6-4.1,1.4c-2.1-0.8-4-2.2-6-3.3c-2.3,1.5-4.6,3-7.2,4.1c-5.4-2-8.5-7.8-9.8-13.2
			c-1,0.1-2.1,0.3-3.1,0.4c0.3,2.8,0.7,5.5,1.3,8.3c0.3,5.2,4.7,8.6,7.5,12.6c3.3-2,6.7-3.9,10.3-5.2c5.6,4.1,11.8,8,18.9,8.4
			c0.2,3.4,3.6,5.1,6,6.9c1.9,0,3.8-0.3,5.8-0.5c-0.8-1.5-0.9-3.5-2.4-4.5c-2.8-1.8-6.2-1.5-9.3-2.1c0.5-4.6,1.4-9.2,1.8-13.8
			c3.2-1.1,7-2,9-5c2.4-2.9,1.7-6.9,1.7-10.4c2.1,0.9,4.1,2.5,6.4,2.2c5.2-0.7,10.2-2.3,15.4-2.5c0.4,3.5-0.9,6.6-2.1,9.8
			c4-1.6,7.4-4.3,10.7-6.9c-0.9-2-2.3-3.6-3.5-5.4c6.2,1,12.4,1.9,18.4,4c1.6,0.5,2.9,1.5,4.1,2.6c-2.4,0.5-4.7,1-7,1.4
			c0.1,1.6,0.2,3.2,0.4,4.9c2.3-0.5,4.6-1,7-1.4l-1.2-1.1c0.7,0.2,2,0.6,2.7,0.8c-1.7-4.2,3.1-2.9,5.4-3.5c0.1,0.6,0.2,1.7,0.2,2.3
			c-4.2,0.7-7.7,3.4-11.9,4.1c0.3,1.4,0.7,2.8,1,4.3c7-0.7,13.7-2.7,20.3-4.8c4,1,7.1-2.3,11.1-1.8c5.2,0.4,10.5-0.3,15.6,1
			c-1,2.7-3,5.6-2.2,8.7c2.8,3.6,6.3,6.7,9.4,10.2c0.9,1.1,2.3,2.2,1.8,3.8c-1,5.4-2.9,10.6-4.1,16c2.3-1.9,3.7-4.6,5.8-6.6
			c3.4-3.7,7.8-6.5,12-9.1c-1.8-3.7-3.2-7.7-6.4-10.3c-2.5-2.6-6.2-2.7-9.6-2.6c1.1-4.4,2.7-9.1,7-11.4c-0.3-1.5-0.7-3-1.1-4.5
			c-1,0.3-1.9,0.7-2.9,1.1c-0.1-0.4-0.2-1.2-0.2-1.6c2.1-0.9,3.4-2.7,4.1-4.8c-0.1-1.2-0.2-2.5-0.2-3.7c4.7-1.5,9.6-0.6,14.4,0.2
			c-0.1-3.7-0.3-7.5-0.8-11.2c1.8-0.1,3.7-0.1,5.5,0c1.2,3.8,2.6,8.6,7.3,9c1.3,8.8,2,17.7,3.2,26.5c0.5,2.2,1.3,5.6,4.3,5
			c2.9-2,4.8-5,7.6-7.1c-3.1-9.5-6.6-18.9-10.2-28.1c6.1-3.5,12.4-6.3,18.4-10.1c4.9-3,10.4-6,13-11.4c1.8,0.4,3.7,0.8,5.5,1.2
			c0.1,0.6,0.2,1.9,0.3,2.6c3.3,7.7,12.6,14.1,20.9,10.2c8.9-4,17.6-8.4,26.5-12.4c1.2-0.6,2.5-0.6,3.8-0.7c4.2,5,9.4,9.1,13.8,14
			c0-1.5,0-3,0-4.4c0.7,0,2.2-0.1,2.9-0.1c0.1,4.1-1.8,7.8-3.1,11.5c5.4,5.3,12.7,9.3,20.5,8.3c0.2,0.9,0.5,2.6,0.7,3.5
			c-14.3-0.3-28.5-1.9-42.8-2.5c-1.6-3.9-4.8-7.1-8.9-8.1c-9.4-2.7-19.4-1.9-29-0.7c-0.5,3.3-1.2,6.5-1.8,9.8
			c-4.4,1.9-8.9,3.2-13.5,4.5c-2.8,1.1-6,2.6-7.4,5.5c-0.1,3.7,1.7,7.1,2.5,10.7c1.3,3.8,1.9,7.8,2.7,11.7c1.2-0.4,3-0.1,3.5-1.6
			c1.6-7.6,2.6-15.3,4.5-22.9c2,4,6.5,1.2,8.9-0.7c3.5-2.8,3.3-7.5,3.1-11.5c6.8,0.6,13.8-0.4,20.3,2.1c6.8,2.1,12.4,7.9,13.6,15
			c-1.7,2.3-3.3,4.6-4.6,7.1c-5-0.6-8.3,4.3-12.8,5.3c-5.4,0.2-10.9-0.2-16.2,1.1c-0.6-2.9-1.3-6-3.8-7.9c-1.5-0.6-3.2-0.2-4.8-0.3
			c0.8,3.9,1.5,7.8,2.3,11.6c1.4,1.1,2.7,2.3,4.1,3.4c9.8-2.2,20,1.1,27.9,6.8c2.5,1.7,4.7,4,7.3,5.6c1.8,0,3.6-0.3,5.4-0.6
			c-0.3-1.6-0.7-3.1-1-4.7c-3-0.6-6-1.1-9.1-1.3c-0.4-3.8-0.8-7.6-0.9-11.4c3.6-1,7.5-2.6,9.5-6c2.6-3.9,1.5-8.9,1.7-13.3
			c2.7,1.5,5,5.2,8.5,4c5.1-1.1,10-4.2,15.4-3c-1,3.4-2.3,6.8-2,10.4c3.6-2,6.9-4.5,10.2-6.8c-1.6-1.8-3.2-3.6-4.7-5.5
			c4.7-0.3,9.4,0.8,14.1,1.3c2.9,0.5,6.1,0.3,8.8,1.7c-1.5,3.7-5.2,5-8.7,6c0.4,1.4,0.8,2.9,1.2,4.3c5.5-2.4,10.7-5.6,16.4-7.7
			c4.8,2.4,8.8,6.1,13.6,8.7c0.4-5.3,3.2-10.7,8-13.1c7.4-1.5,14.8-2.7,22.2-4.3c-0.3-1.5-0.6-3-1-4.4c-3.4,0.4-6.7,1.1-10,1.7
			c-0.3-1.3-0.6-2.6-0.9-3.9c0.2-0.6,0.7-1.9,0.9-2.5c5,0.9,9.9-0.2,14.8-1.3c4.4-1.2,8.8,0,13.2,0.4c-0.3-1.4-0.6-2.8-1-4.1
			c-3.2-0.6-6.5-1-9.7-1.6c-4.2,0.8-8.3,1.7-12.5,2.2c0-0.7-0.1-2-0.1-2.7c-0.4,0.1-1.1,0.2-1.4,0.2c-0.5,1.1-1.1,2.1-1.6,3.2
			c-4,0.1-8,0.4-11.9-0.3c-1.7-0.3-2.9-1.6-3.5-3.2c1.9-1.8,3.6-3.8,5.6-5.5c3.5-1.3,7.4-1.5,11-2.4c-0.4-1.5-0.7-3.1-1.1-4.6
			c-7.9,1-15.1-2.9-21.4-7c0.9-0.2,2.8-0.5,3.7-0.6c-0.1-1.7-0.2-3.3-0.4-5c-2.7,0.7-5.6,1.6-7.3,3.9c-1.8,2-1.9,4.8-2.4,7.3
			c4.4,1.2,8.9,2,13.5,2.6c-3.7,6.8-8.1,13.2-12,19.8c-6.2-0.7-12.3-2-18.5-2.4c-0.8-3.8-3-8.1-0.8-11.8c-2.4-1.4-4.8-2.9-7.6-3.4
			c0.2,3.5,1,6.9,1.7,10.4c-2.5,0.2-4.6,1.4-6.9,2.2c-4.6,0.7-7.8-3.5-10-6.8c3.8,0.6,2.7-2.6,2.6-4.9c-6.6-3.5-13.7-6.2-19.8-10.6
			c0-0.5,0-1.4,0-1.8c10.5-0.4,20.9,1.6,31.4,1.1c7-1.9,12.8-6.7,18.3-11.1c0.9-0.9,2.4-1.5,2.3-3c-1.1-1.2-2.4-2.3-3.4-3.6
			c0-1.2,0.1-2.4,0.3-3.6c7.2,1.5,13.9,5.1,21.5,4.4c0,4.2-4.5,5.4-7.8,6.2c0.2,1.6,0.3,3.2,0.5,4.9c5.8-2,11.1-5.3,16.5-8.3
			c4,2.4,7.7,5.3,11.7,7.8c1,0.6,2.2,0.4,3.3,0.6c0.1-2.9,0.9-5.7,2.8-7.9c1.9-2,3.5-4.6,6.4-5.1c5.7-1.2,11.5-2,17.2-3.4
			c-0.4-1.5-0.8-2.9-1.1-4.3c-2.2,0.3-4.5,0.6-6.7,0.9c-0.2-1.5-0.5-3-0.7-4.5c5-0.9,9.9-2.2,15-2.6c3.9,0.4,7.8,0.7,11.7,0.9
			c-0.1-1.1-0.3-3.2-0.5-4.3c-6.8-1.8-13.6,0.2-20.3,1.2c-0.1-0.7-0.4-2.1-0.5-2.8c-1.5,0.5-1.8,2.3-2.6,3.5
			c-5.6,0.1-11.1-0.9-16.6-1c-0.8-3.4,2.6-4.7,4.7-6.4c3.6-3,8.4-2.9,12.8-3.8c-0.1-1.3-0.2-2.6-0.3-3.9c-4.4,0.3-8.7-0.5-12.6-2.5
			c7.1-1.8,14.3-3.3,21.4-4.8c1.3-4.2,1.8-8.7,2.3-13.1c1.4-11.8,2.1-23.7,3-35.5l-2.2,0c0,0.6-0.1,1.9-0.1,2.5
			c-0.5-0.2-1.5-0.6-1.9-0.8c5.6-8.4,5.1-19,5.3-28.7c2.1-0.1,4.2,0.1,6.4-0.2c1.6-1.6,1.4-4.1,1.7-6.2c1.4,0.6,2.7,1.6,4.2,1.7
			c2.2-1.1,4.3-2.4,6.6-3.5c1.1,3.1-1.2,5.9-3.3,8c0.5,0.3,1.4,0.8,1.9,1.1c8.7,0.5,17.3,1.1,26,1.2c4.8-0.1,11.1-4.7,9.2-10.1
			c1.6,0.4,3.2,1,5,1.1c4.8-3.5,9.2-7.5,13.8-11.3c-0.1-6.1,0.1-12.2-0.1-18.3c0.1-1.7-1.8-2.6-2.8-3.7c0.1,0.1,0.2,0.2,0.3,0.4
			c-3.6-0.5-6.9,0.9-9.9,2.7c0.1-2.1,0.2-4.4,1.6-6.2c1.6-2.2,4.9-3.9,3.7-7.2c0-3.2-3.1-4.6-5.6-5.6c1.6-2.4,3.2-4.8,4.8-7.2
			c3,1.3,6.2,3.1,7,6.6c0.8,0,1.5,0,2.3,0c-0.2-6,0.1-12,1-17.9c-0.6,0-1.9-0.1-2.5-0.1c2.2-3.5,3.5-7.7,1.8-11.7
			c-1.2-0.5-2.3-1.1-3.4-1.6c1.8-1.8,3.7-3.7,4-6.4c0.9-6.2,2.1-12.6,0.2-18.7c-3.5,1.6-6.8,3.5-10.4,4.8c0.4-3,2.1-5.4,3.9-7.6
			C983.4,164.9,986,164.4,988.4,163.7z M856.9,163.8c-0.7-0.8-1.4-1.5-2.1-2.3c0-1.2,0-2.3,0-3.5c2.7,1.1,4.4,3.4,6.1,5.6
			C859.6,163.6,858.2,163.7,856.9,163.8z M862.7,179.1c-0.2-3.7,1.4-7.1,2.2-10.7c0.8,0,1.6-0.1,2.4-0.1c0.4,1,0.8,1.9,1.2,2.9
			C865.4,173,864.4,176.3,862.7,179.1z M769.8,174.5c-1.1-0.8-2-1.8-3-2.7c1-0.4,2-0.9,3-1.3C769.8,171.8,769.8,173.1,769.8,174.5z
			 M667,213.4c0.9-0.7,1.9-1.4,2.8-2.1c0.4,0.8,0.8,1.5,1.2,2.3C669.7,213.6,668.4,213.5,667,213.4z M512.6,161.7
			c0-1.2,0.1-2.5,0.2-3.7c2.6,1.2,4.4,3.4,6.1,5.7C516.4,164,514.1,163.7,512.6,161.7z M521,179.1c-1.2-3.6,1.1-7.2,1.7-10.7
			c0.9,0,1.7,0,2.6,0c0.2,1.1,0.3,2.2,0.5,3.4C522.9,173.2,521.9,176.2,521,179.1z M459.1,289.9c1.7-0.5,2.3,0,1.8,1.5
			C459.2,292,458.6,291.4,459.1,289.9z M437,209C440.4,209.3,435.4,212,437,209L437,209z M390.5,204.3c1.2-0.9,1.9-0.7,2.2,0.6
			C391.5,205.8,390.8,205.6,390.5,204.3z M402.8,331.7c-0.8-1.5-3.1-3.3-1.4-4.9c1.7-0.1,3.5-0.1,5.2-0.1c0,1.7,0,3.3,0,5
			C405.3,331.6,404,331.6,402.8,331.7z M424.5,252.6c0.5,3.4,0.6,6.8-0.1,10.1c-0.3,0.1-1,0.3-1.3,0.4
			C422.8,259.6,423.7,256,424.5,252.6z M430.1,397c-3.2,2.6-5.9,5.8-8.9,8.6c-2.3-3.3-6.2-3.3-9.9-3c1.2-4.9,4.3-9,6.1-13.7
			c0.2-1.8-0.5-3.4-0.8-5.1c-1.2-0.5-2.4-1-3.6-1.5c11.5,0.1,22.8,2.4,34.2,3.5C441.3,389.3,435.3,392.6,430.1,397z M448.5,365.7
			c-2.8-0.3-5.5-0.7-8.2-1.6c-1.2-3.4-0.3-7.3-0.4-10.9c3.2,2.8,3.9,8.5,9,9.1C448.8,363.3,448.6,364.5,448.5,365.7z M839.8,450.7
			c3.3-1.3,6.6-2.5,9.9-3.6c-0.1-1.2-0.2-2.5-0.2-3.7c-1.2,0-2.5-0.1-3.7-0.3c-0.2-1.1-0.4-2.2-0.5-3.2c1.5-0.5,3-1.2,4.5-1.6
			c1.8,1.4,3.8,2.6,6.1,3c1.9-0.3,3.7-0.6,5.6-0.9c0.1,2.1,0.2,4.1,0.1,6.2c-2.9-0.1-5.7-0.2-8.6-0.2c-2.2,4.4-5,8.5-7.3,12.8
			c-2.7-1.8-5-4.2-7.4-6.3C838.6,452.1,838.5,450.7,839.8,450.7z M824,440.4c3.4,1.7,6.7,3.5,9.8,5.6c0.1,1.6-0.8,3-1.4,4.4
			c-4.3-1-9.3-1.1-12.5-4.4C817.6,443.5,821.9,440.9,824,440.4z M805.5,365c-0.1-1.6-0.2-3.2-0.4-4.7c-2,0.1-4,0.3-5.9,0.5
			c0-0.5,0.1-1.5,0.1-2c2.5-1.2,4.7-4.1,7.7-3.3c3.4,0.6,6.7,1.6,10.1,2.3c0.2,1.6,0.3,3.2,0.5,4.9c-1.5,1.1-3.1,2.2-4.6,3.2
			c-0.9-0.8-1.8-1.6-2.7-2.3c-1.2,0.4-2.4,0.7-3.5,1.1c-3.4,3.2-5.2,7.6-4.6,12.3c-3.8-0.7-6.2-4.1-8.3-7.1
			C797.7,368.2,801.5,366.3,805.5,365z M787.2,361.5c0.3,2.1,0.6,4.2,1.1,6.3c-5-0.9-9.7-2.9-14.7-3.8c-0.3-1.9-0.6-4.1,1.3-5.2
			C779,359.5,783.1,360.5,787.2,361.5z M775.2,324.2c2.4,0.5,4.1,2.5,5.1,4.7C778.3,327.6,776.3,326.3,775.2,324.2z M774.6,288.4
			c-0.6,0-1.7,0-2.2,0c0-0.8,0.1-1.7,0.1-2.5c1.5-0.4,2.9-0.8,4.4-1.2C776.6,286.2,775.6,287.3,774.6,288.4z M777.6,257.9
			c0-2.1,1.4-3.6,2.9-4.8C780.4,255.1,779.1,256.6,777.6,257.9z M783.4,271.3c0,1.1,0,2.2,0,3.2c-1.5-0.3-3-0.6-4.4-1
			C780.1,272.3,781.5,271.1,783.4,271.3z M784.6,296.3c-1.1,0-2.2,0-3.2,0c0-2.7-0.2-5.4,0.1-8c1-0.5,2.1-0.8,3.2-1.2
			C784.7,290.1,784.7,293.2,784.6,296.3z M785.7,218c0.7-1.3,1.6-2.4,2.5-3.5c2,0.1,4,0.1,6.1,0.2c0.1,0.5,0.3,1.7,0.4,2.2
			C791.9,218.5,788.8,219.2,785.7,218z M789.3,284.1c-0.6-2.8,1.6-4.4,3.3-6C792.2,280.5,791.4,282.8,789.3,284.1z M798.2,318
			c-1.1-0.8-2.3-1.6-3.4-2.4c1.1-0.1,2.3-0.2,3.5-0.2C798.3,316,798.3,317.3,798.2,318z M803.2,320.9c0.5-1.3,1.1-2.6,1.7-3.9
			c0.5,2.3,1,4.7,1.4,7C805.2,323,804.2,321.9,803.2,320.9z M808.4,338.1c-3.5-0.3-1.4-4.1-1.5-6.4c0.4-0.1,1.2-0.5,1.5-0.6
			C808.5,333.5,808.5,335.8,808.4,338.1z M810.9,340.3c0.6-1.1,1.3-2.3,2.1-3.3c1.6,1.2,2.8,2.8,4,4.4
			C814.9,341.1,812.9,340.7,810.9,340.3z M821.8,309.4c0,3.6-0.3,7.1-1,10.7c-4-0.3-3.7-5.3-4.6-8.2
			C818,310.8,819.9,309.9,821.8,309.4z M816.4,280.3c0.4,2.3,0.8,4.6,1.2,6.9c-3.1,0-6.2,0-9.2,0c0.4-1.8,0.4-3.7,1.5-5.2
			C811.2,279.6,814.2,280.6,816.4,280.3z M814.2,259.9c0.1-0.6,0.2-1.8,0.2-2.4c0.5,0.1,1.4,0.2,1.9,0.2c0.1,0.5,0.2,1.4,0.2,1.9
			C816,259.7,814.8,259.8,814.2,259.9z M817.7,245.3c-1.9,0-3.9,0-5.8,0c-2-3.4-4.9-6.5-6.4-10.1c2-1.7,4.9-2.5,7.5-3.2
			C814.8,236.3,816.4,240.8,817.7,245.3z M812.2,214.1c1.3,0.6,1.3,1.3-0.1,2.1C810.9,215.5,810.9,214.8,812.2,214.1z M806.8,184.4
			c-1.8,1.5-4.2,0.8-6.1,0c-0.1-0.6-0.2-1.8-0.3-2.3C802.6,182.7,804.7,183.5,806.8,184.4z M804.3,213.6c0.5-0.3,1.5-0.9,2.1-1.1
			c0.6,0.8,1.2,1.5,1.8,2.3c-2.9-0.3-6-0.3-8.3-2.2C801.4,212.4,803,212.6,804.3,213.6z M799.9,300.1c2,3.4,5.4,6.2,5.6,10.4
			c-0.7,0.1-2,0.3-2.6,0.3c-1.2-2.7-2.3-5.4-3.5-8c-2.3,1.6-2.6,4.5-3.3,7c-3.4-0.5-5.4-3.7-5.5-6.9c0.6-1.6,1.4-3.1,2.2-4.6
			c1.5,0.8,2.9,1.5,4.4,2.3C798,300.5,799,300.3,799.9,300.1z M783.5,183c2.5-0.7,5.1-1.6,7.6-2.4c0.5,0.3,1.6,0.9,2.2,1.3
			c0.7,2,1.9,4.1,1.4,6.3c-0.7,3-2.8,5.4-4.6,7.7C786.5,192.6,783.2,188,783.5,183z M782.5,237.4c0.5,0,1.7,0,2.2,0
			c0,0.5,0,1.7,0,2.2c-0.6,0-1.7,0-2.2,0C782.5,239,782.5,237.9,782.5,237.4z M781.3,172.8c0,1.9,0,3.9,0.1,5.8
			c-0.4-0.1-1.1-0.2-1.4-0.3c-0.8-1.8-1.5-3.7-1.9-5.6C779.1,172.7,780.2,172.7,781.3,172.8z M776.6,202.7c-1.2,0.8-2.4,1.7-3.6,2.4
			c0.5-1.9,2.2-2.8,3.6-4C776.6,201.5,776.6,202.3,776.6,202.7z M772.5,180.6c1.9,1.8,2.6,4.4,3.3,6.8c-1.1,0.4-2.3,0.9-3.4,1.3
			C772.3,186,772.3,183.3,772.5,180.6z M770.3,237.3c2.1-1.9,4.1-4.1,6.7-5.2c0.3,0.9,0.6,1.9,0.8,2.9c-1.6,2.6-3.7,4.8-5.7,7.1
			C771,240.7,769.5,239.1,770.3,237.3z M765.7,279.3c-0.5,1.3,0.4,3.7-1.3,4.2c-1.6-1-2.7-2.6-3.7-4.2
			C762.3,279.3,764,279.3,765.7,279.3z M762.3,265.5c-0.9,0-1.7,0-2.6,0c0-0.5,0-1.6,0-2.1c0.8,0,1.7,0,2.5,0
			C762.2,264,762.3,265,762.3,265.5z M759.7,257.6c1.8-1.3,2.6,2.6,0.6,2.7C759.1,259.7,758.9,258.8,759.7,257.6z M753,270.7
			c1.2,1.3,1.6,3,1.9,4.7c-2.7,0.2-5.4,0.4-8-0.1l-1.5,0c-1.1-4.4,4.7-4.3,7.4-5.3L753,270.7z M747.3,263.7c0,0.9,0,1.8,0.1,2.8
			c-1,0-1.9,0-2.9,0c-0.1-1-0.2-2-0.2-3C745.3,263.5,746.3,263.6,747.3,263.7z M734.1,258.2c1.2,0.9,2.2,2.1,3.3,3.2
			c0,0.6-0.1,1.9-0.1,2.6c-2,0-3.4-1.5-4.8-2.8C732.7,260,732.3,258,734.1,258.2z M735.6,279.2c-0.2,2.1-2.3,3.1-4,3.8
			c-0.3-3.7,0.4-7.3,1.2-10.8C736.5,272,736,276.6,735.6,279.2z M728.9,264.2c2.3,1.8,4.4,3.9,3.9,7.1
			C729.5,270.6,727,267.4,728.9,264.2z M715.5,361.2c-1-0.9-2-1.9-2.9-2.9c0.5-1.7,0.9-3.4,1.3-5.2c-1.4,0.1-2.8,1.9-4.3,1.4
			c-1.9-2-3.5-4.2-5.2-6.4c2.5-2.1,4.3-5.5,7.8-5.9c0.4,2.4,0.8,4.8,1.3,7.1c0.5,0,1.6,0,2.1,0c0-2.4,0-4.8,0.1-7.1
			c1.7,1.2,4.2,2.3,4.2,4.8c-0.7,3.2-2.8,6-5.2,8.2C715.1,357.2,715.4,359.2,715.5,361.2z M706,353.9c-1.6,0.5-2.2-0.1-1.8-1.7
			C705.8,351.7,706.4,352.3,706,353.9z M713.6,313.3c-0.6-1.6,1.4-2.5,2.1-3.6c2,0.1,3.9,0.1,5.9,0.1c-0.5,1.1-1,2.3-1.5,3.4
			C717.9,313.5,715.7,314.1,713.6,313.3z M717.6,287.4c1.3-0.1,2.6-0.1,3.9-0.1c-0.1,0.5-0.2,1.6-0.2,2.2c-1.1-0.1-2.2-0.1-3.4-0.1
			C717.8,288.8,717.7,287.8,717.6,287.4z M719.2,265.8c0-1.2,0.1-2.4,0.1-3.6c0.8,1,1.7,2.1,2.5,3.2
			C721.1,265.4,719.8,265.6,719.2,265.8z M713.5,233c0.7,0.7,1.5,1.3,2.2,2c-0.2,2.9-0.5,5.8-1.5,8.5
			C712.6,240.2,713.7,236.5,713.5,233z M718,253.4c3.1,0.4,3.2,4.7,0,5.1c-2,0.1-4.1,0.1-6.1,0.1c-0.4-1.7-0.9-3.3-1.3-5
			C713.1,253.4,715.6,253.2,718,253.4z M710.2,289.3c0.2,1.9,0.4,3.8,0.6,5.8c-0.5,0.1-1.5,0.4-2.1,0.6c-0.5,1.3-0.9,2.6-1.4,4
			c-1-0.1-3-0.2-4-0.3c0.3-3.2,1.5-6.2,3.1-9C707.2,289,709,289.6,710.2,289.3z M708.1,311c-2.7-1.2-5.6-2.9-6.1-6.1
			C704.6,306.2,706.8,308.3,708.1,311z M703.8,267.5c3-0.2,2.2,2.4,1.8,4.4C703.3,271.7,704.1,269.1,703.8,267.5z M707.1,266.7
			c-1.3-0.3-2.6-0.7-3.9-1c0.1-0.7,0.3-2.1,0.4-2.8C704.9,264,706.2,265.2,707.1,266.7z M702,246.1c1,1.1,1.9,2.2,2.9,3.4
			c-1.8,0.1-3.5,0.2-5.2,0.2C700.4,248.5,701.2,247.3,702,246.1z M699.3,266.2c1.6-0.6,2.6,2,0.8,2.3
			C698.5,269,697.5,266.4,699.3,266.2z M701.5,278.6c-0.5,0-1.4,0.2-1.8,0.2c-1-2.5-2.1-5.1-2.1-7.9
			C700.2,272.5,701,275.7,701.5,278.6z M701.8,324.8c2.8-0.6,5.7-0.3,8.6-0.2c0.2,2.5-1.2,4.1-3.6,4.5c0.6,1.6,1.8,3,1.8,4.8
			c-1.2,1.9-2.8,3.5-4.3,5.1c-2.9-1-5.9-1.1-8.9-1.1c-0.5-2.5-0.8-5.1-1.1-7.6h3C698.2,328.1,699.3,325.5,701.8,324.8z M698.8,355.9
			c-1.1,1-2.1,2-3.2,3c0-1,0-2.1,0-3.1C696.6,355.8,697.7,355.9,698.8,355.9z M696.7,287.8c-0.5,4.6-4.1,7.8-8.2,9.3
			c-0.3-0.8-0.8-2.5-1.1-3.3c2.2-2.2,4.5-4.5,6.7-6.7C694.7,287.3,696,287.6,696.7,287.8z M693.2,340.3c0,2.6,0,5.2,0,7.8
			c-2.6-1.1-2.8-4.2-3.7-6.6C690.7,341.1,691.9,340.7,693.2,340.3z M689.8,326.5c0.9-0.9,1.8-1.7,2.7-2.6c0.1,0.7,0.3,2.1,0.4,2.8
			C692.2,326.7,690.6,326.6,689.8,326.5z M687.6,356.2c-1.1,0-2.3,0.1-3.4,0.1c-0.2-1.8-0.4-3.6-0.5-5.5
			C686,351.8,687.9,353.6,687.6,356.2z M682.5,268c1.2-1.7,3.1,0.7,2,2C683.3,271.7,681.4,269.3,682.5,268z M685.2,276.1
			c0.3-1.9,0.9-3.7,1.5-5.5c0.5-0.1,1.5-0.3,2-0.3C688,272.5,687.4,275,685.2,276.1z M693.3,258.2c-0.9,1.4-1.8,1.4-2.7,0
			C691.5,256.8,692.4,256.8,693.3,258.2z M692.8,240.1c0.4,2.6-2.4,5.2-4.8,3.5C689.3,242.1,690.9,240.8,692.8,240.1z M689.9,205.3
			c-2.1-1.3-4-3-5.1-5.3C687.4,200.8,690.2,202,689.9,205.3z M686.9,257.5c-1.6,0.1-3.3,0.1-4.9,0.1c0.4-1.2,0.9-2.5,2-3.2
			C685.1,255.2,686,256.4,686.9,257.5z M681.8,232.8c0.5-0.1,1.5-0.2,2-0.3c0.5,2.6,0.5,5.3,0.5,8c-1.2,0.5-2.5,0.9-3.8,1.4
			C680.8,238.9,681.3,235.8,681.8,232.8z M682.8,289.2c-0.1,1.2-0.1,2.4-0.2,3.6c-0.8-1.1-1.7-2.1-2.5-3.2
			C680.8,289.5,682.2,289.3,682.8,289.2z M681.8,345.6c-2.8,0.4-5.5,1.2-7.2,3.6c-2.9-2.3-5.4-6.8-3.2-10.2c1-2,2.7-3.4,4.3-4.8
			C679.6,336.7,682,341.1,681.8,345.6z M675.7,244.9c0.6,2.8-0.3,5.5-2.5,7.3C673,249.5,673.9,246.9,675.7,244.9z M677,309.6
			c0.8,0.8,1.7,1.6,2.5,2.4c-0.8,1.1-1.6,2.3-2.4,3.4c-2.3-0.8-4.6-1.7-6.9-2.5C672.1,311.1,674.6,310.4,677,309.6z M670,238.2
			c1.3-1,2.9,1.2,1.8,2.3C670.6,241.4,668.9,239.2,670,238.2z M664,361.4c0.3,1.3,0.5,2.5,0.8,3.8c12.7-0.6,25.4-0.6,38.2-0.8
			c-0.9,2.1-3.2,4.1-2.1,6.6c0.9,0.7,1.9,1.4,2.9,2c-0.4,1.4-0.9,2.8-1.4,4.2c-2.7,0.8-5.2,2.7-5.1,5.8c-7.2-1.8-14.2-3.9-21.3-5.9
			c-1.8-0.2-2.4-1.7-2.5-3.3c0.9-0.1,2.6-0.3,3.5-0.4c-0.3-2.5-0.8-5-1.7-7.4c-1.1,1.1-2.1,2.2-3.1,3.3c-7.9,0-15.9-0.2-23.8-0.9
			l0.5-1.5C654,365.6,659.4,364.4,664,361.4z M641.5,359.1c-0.4-1.6-0.7-3.1-1.1-4.7c5.9-1.8,12.2-0.7,18.2-0.8
			c0.2,2.8-1,5.3-2.4,7.6c-2.1,0.3-4.2,0.9-6.3,1.1C647,361.7,644.3,360.2,641.5,359.1z M645.5,385.4c2.3-1.7,4.8-3,7.3-4.5
			c-0.1-1-0.1-2-0.2-3c-0.4-0.5-1.3-1.6-1.8-2.1c2.1-0.7,3.3,0.8,4.3,2.5c2.4,1,4.9,1.1,7.5,1.2c-4.2,2-8.3,4.7-9.8,9.4
			c-0.5,1.3-1,2.7-1.6,4c-2.2-1.3-4.1-2.9-5.9-4.6C645.4,387.3,645.4,386.4,645.5,385.4z M625.6,373.3c4.8,1.3,9.4,3.3,14.2,4.7
			c-0.1,2.2-0.2,4.5-0.4,6.7c-4.2-1.2-8.4-2.2-12.5-3.6C624.4,379.4,625.8,375.7,625.6,373.3z M628.5,412.5c0.4,2,0.8,3.9,1.2,5.9
			c-2.9,0.6-5.7,1.3-8.6,1.7c-3-0.5-5.8-1.7-8.6-2.8c-0.1-1.6-0.2-3.1-0.3-4.7C617.6,411.3,623.1,411.5,628.5,412.5z M624.5,403.5
			c0.9-0.1,1.8-0.1,2.6-0.2c0.1,1.6,0.3,3.2,0.4,4.8C624.9,408.4,625.3,405.2,624.5,403.5z M586.9,361.3c4.8-1.3,9.8-2,14.7-2.9
			c-0.7,3-1.3,5.9-2.1,8.9c-6.2,1.5-12.7,1.2-19,1.2C580.4,364.7,584.2,363.1,586.9,361.3z M574.9,254.7c2.6,3.1,2.6,7.5,3.4,11.2
			C574.8,263.4,574.7,258.6,574.9,254.7z M587.2,249.6c-1.6-0.1-3.1-0.5-4.6-1c0-0.5,0-1.6,0-2.2c1.6-0.5,3.2-0.9,4.8-1.3
			C587.4,246.6,587.3,248.1,587.2,249.6z M597.4,276.8c-1.7-1.4-3.8-2.4-5.3-4c-1.1-4.8,2.7-9.7,7.7-9.7
			C602,267.8,598.6,272.4,597.4,276.8z M599.7,248.1c0.1,2.6-2.3,4-4.5,4.5C596.4,250.8,597.9,249.2,599.7,248.1z M597.3,222.1
			c1.6-0.5,2.2,0.1,1.7,1.7C597.4,224.3,596.8,223.7,597.3,222.1z M632.6,261.4c0,1.8,0,3.6,0,5.5c-1-0.2-2-0.3-3-0.5
			c-0.5-1.6-0.9-3.2-1.4-4.8c-1.6-0.2-3.1-0.3-4.7-0.4c1.6,2.7,0.5,5.4-1.2,7.8c-1.7-1.7-3.6-3.3-5-5.2c-0.2-1.9,0.2-3.8,0.4-5.7
			c2.4,0.2,5.2,1.3,6.8-1.2C627,258.7,629.5,260.5,632.6,261.4z M623.3,224c1.6-0.5,2.1,0.1,1.6,1.8
			C623.3,226.3,622.8,225.7,623.3,224z M642.9,210.7c-1.6,0.5-2.2,0-1.8-1.7C642.7,208.5,643.3,209,642.9,210.7z M639.4,176.3
			c0.5,0,1.7,0,2.2,0c0,1.5,0,3,0,4.4c-0.6,0-1.7,0-2.2,0C639.3,179.2,639.3,177.8,639.4,176.3z M637.3,190.4c1.6,1.4,2.3,4-0.1,5
			C637.2,193.7,637.2,192,637.3,190.4z M638.3,201.2c0.4,1.4,0.8,2.9,1.2,4.3c-0.7,0-2.1,0.1-2.8,0.2c-0.8-1.2-1.5-2.4-2-3.7
			C636,201.8,637.1,201.5,638.3,201.2z M630.2,212c1.9-0.7,2.8,2.4,0.8,2.9C629.1,215.6,628.4,212.5,630.2,212z M618.4,171.2
			c-0.3,0.5-0.9,1.6-1.2,2.2C614.5,172.9,617.2,168.1,618.4,171.2z M621.3,188.4c3.7,2.8,6.9,7,7.7,11.7c-1.4,0.5-3.1,1.3-4.4,0.2
			c-3.6-2.3-7-4.9-10.4-7.4C616.2,190.9,618.7,189.6,621.3,188.4z M611.3,244.8c0-2.4,0.3-4.7,0.5-7.1c0.4-0.1,1.3-0.2,1.7-0.3
			C613,239.9,612.9,242.6,611.3,244.8z M610.1,170.6c1.4-0.9,3.4,1,2.5,2.4C611.2,174.3,608.6,172,610.1,170.6z M608.8,251.8
			c0,1.9,0,3.9,0,5.9c-0.5,0-1.6-0.1-2.2-0.1c-0.5-2.8-0.9-5.6-1.1-8.4C606.6,250.1,607.7,250.9,608.8,251.8z M602.6,233.7
			c0.4,0.9,0.6,1.9,0.9,2.8c-0.5,0.1-1.6,0.2-2.1,0.2c-0.7-0.7-1.4-1.4-2.2-2.2C600.3,234.2,601.4,233.9,602.6,233.7z M579.8,167.2
			c-0.8,1.6-2,3-3.7,3.7C577.2,169.5,578.4,168.3,579.8,167.2z M593.9,176.9c2.1-0.8,4.4-0.6,6.6-0.5c0.1,0.5,0.2,1.6,0.3,2.2
			c-2.2,1.1-4.8,1.8-6.3,3.8c-0.5,4.9-0.2,9.8-0.2,14.8c-0.2,1.9,1,3.5,1.8,5.1c-0.8,0.1-2.4,0.3-3.2,0.4c0.1,4.6,0.1,9.2,0,13.8
			c0.9,0.4,1.8,0.8,2.6,1.2c0,1-0.1,1.9-0.1,2.8c-1.2,1.5-2.3,3-3.5,4.5c-0.1,3,0.2,6,0.7,9c0.5,3-0.6,5.9-0.9,8.9
			c-4.5-0.1-9.1-0.2-13.5,0.5c-1.6,2.2-4.3,1-6.4,2.5c-1.9,0.8-3.9-0.4-5.8-0.5c0.5-2.2,2-4,3.3-5.8c0-5.6,0.6-11.2,1.2-16.8
			c-0.6,0-1.9-0.1-2.6-0.1c0.8-1.5,1.6-3.1,2.4-4.6c0.1-2.1,0.1-4.2,0.2-6.3c-1.4-2.3-3-4.5-4.3-6.8c0.5-4.3,4.7-7.5,4.2-12
			c-0.6-2.1-3-2.6-4.7-3.5c0-0.5,0.1-1.4,0.1-1.9c1.8,0.8,3.6,1.3,5.6,1.3c0.8-2.2,1.2-4.6,1.4-6.9
			C579.9,180.5,587.1,179.4,593.9,176.9z M549.2,347.9c-0.1,1.7-3,1.9-3,0C546.2,346.2,549.2,346.1,549.2,347.9z M545.1,330.8
			c0.1-1.8,3.1-1.7,3.3-0.1C548.2,332.2,545.3,332.3,545.1,330.8z M544.1,326c0.7-3.2,2.9-5.4,5.8-6.6c3,1.3,2.2,6.4,5.8,6.4
			c-1-2.1-1.3-4.4-1.3-6.7c1.4,0.2,2.9,0.4,4.3,0.6c1,3.5-0.2,7.1-2,10.1c-1.6,2.2,1.2,4.1,2.2,6c-1.2,0-2.3-0.1-3.4-0.3
			C551.5,332.6,548.3,328.7,544.1,326z M532.8,318.7c-1.2-2.5-2.5-5.1-3.5-7.7c1,0.1,2.9,0.4,3.8,0.5c0.8-2.2,0.9-4.9,2.8-6.5
			c2.4-2.1,5.6-2.7,8.6-3.4c0,2.1-1.1,3.8-2,5.6c-0.1,2.1,2.7,3.7,1.6,5.9C542.8,317.8,537.1,318.9,532.8,318.7z M541,335.8
			c-1.1,0.9-2.3,1.7-3.5,2.4c0-0.7,0-1.9,0-2.6C538.7,335.7,539.9,335.8,541,335.8z M527.4,306.2c1.6,1-1.4,4.1-2.9,3.5
			C524.1,308.1,526,306.7,527.4,306.2z M526,250c1.6-0.5,2.1,0.1,1.6,1.8C526,252.3,525.5,251.7,526,250z M525.2,333
			c2.3,1.6,5.2,3.5,4.3,6.8C526.8,338.6,525,336,525.2,333z M528.4,323.6c1.1-0.5,2.3-1,3.4-1.4c0,2.1,0,4.1-0.2,6.2
			C530.4,326.8,529.4,325.2,528.4,323.6z M537.5,271c-0.8,2.9-2.3,5.7-2.2,8.9c-1.5-1.3-4-2.4-3.5-4.8c0.5-2.5,0.2-5.4,2-7.4
			C536.2,266.9,537.1,269,537.5,271z M535.2,254.1c1.6-1.2,2.8,1.7,1.5,2.6C535.1,257.9,533.9,255.1,535.2,254.1z M538.8,289.5
			c-3-0.4-6-2-6.7-5.2C535,285.1,536.8,287.5,538.8,289.5z M540.9,252.2c1.3-1.2,2.5,1.3,1.5,2.2C541,255.6,539.7,253.1,540.9,252.2
			z M552.3,288.2c3,0.1,7.5,1,7.6,4.8c-1.1,3.5-3.3,6.6-6,9.1C551,298,552.7,292.8,552.3,288.2z M561.4,307.5c0,0.6-0.1,1.7-0.1,2.2
			c-0.7-0.7-1.4-1.4-2.2-2.1C559.7,307.6,560.8,307.5,561.4,307.5z M554.1,280.1c-2.1-0.7-4.3-1.3-6.4-2c0-1.5-0.1-3-0.1-4.5
			c1.8-0.4,3.7-0.8,5.5-1.2c1.4,1.3,2.9,2.9,5.1,2.1c0.6-1.3,1.2-2.6,1.7-3.9c1.3-0.2,2.6-0.3,3.9-0.4
			C562.6,275.3,556.1,275.4,554.1,280.1z M547.2,290.5c-0.8-0.5-1.6-1.1-2.3-1.6c1.6-1.8,3.4-3.5,6-3.3
			C551.5,288.2,549.2,289.4,547.2,290.5z M557,213.5c0.6-0.7,1.3-1.5,1.9-2.2c0.6,0,1.9,0.1,2.5,0.1c0,0.5,0,1.6,0,2.1
			C559.9,213.5,558.4,213.5,557,213.5z M558.7,251.1c-0.2,2.2-1.5,4.1-2.7,5.9c-1.5-2.9-2.3-6.1-2.8-9.3c0.7-0.2,2.1-0.6,2.8-0.9
			C557,248.2,558.3,249.5,558.7,251.1z M553.2,238.4c-1.1-2.3-2.3-4.6-1.8-7.2c1.6,1.3,3.1,2.7,4.6,4.1
			C555.3,236.5,554.3,237.5,553.2,238.4z M553.5,245.6c-3,0-5.2-2.6-5-5.6C551.6,240.1,554.2,242.3,553.5,245.6z M550.3,230.2
			l-0.2-1c-0.7,0.7-1.4,1.3-2.2,1.9c-0.8-1.3-1.8-2.5-2.3-3.9c0.3-1.9,0.7-3.7,1.3-5.5c0.7-0.7,1.4-1.5,2.1-2.2
			C550.1,222.9,550.8,226.5,550.3,230.2z M546.6,263.4c0,0.5,0,1.6,0,2.2c-1.1,0-2.2,0-3.3,0c0-0.5,0-1.7-0.1-2.2
			C544.3,263.4,545.5,263.4,546.6,263.4z M565,356.5c-1.8,2.5-5.4,2.5-8,1.5C559.5,357.2,562.2,356.5,565,356.5z M563.5,237.4
			c0-1.2,0.1-2.4,0.2-3.5c0.9,1.1,1.7,2.2,2.4,3.4C565.4,237.3,564.2,237.4,563.5,237.4z M560.2,165c-0.6-2.5,1.8-4,3.2-5.7
			c2.7,0,5.5,0,8.2,0c1.1,2.2,2.1,4.4,2.2,6.9h-3.2c-0.5,2.1-0.7,4.5-2.3,6.1c-2,2.3-5.1,2.5-7.8,3.2c-0.5-1.2-1-2.5-1.4-3.8
			C564.2,171.9,559.7,167.5,560.2,165z M559.2,187.6c-0.6,1.1-1.3,2.2-1.9,3.3c-1.7,0-3.3-0.1-5-0.1c1.1-1,2.2-2.1,3.4-3.2
			C556.8,187.6,558,187.6,559.2,187.6z M552.2,176.3c0,4.2,0,8.4-0.1,12.6c-2.9-0.2-6.4-0.8-7.7-3.8c1.2-2.8,2.5-5.7,3.2-8.7
			C549.2,176.3,550.7,176.3,552.2,176.3z M543.1,168.2c0.9-1.3,3.7-0.1,2.6,1.5C544.7,171,541.9,169.8,543.1,168.2z M551.5,197.7
			c1.7,0.4,3.4,0.8,5.1,1.2c0,1.5,0,3.1,0,4.6c-2.2,0.3-4.3,1-6.5,0.8c-1.4-0.8-2.6-1.8-4.2-2.2c0,3.1-2.3,5-5.3,4.8
			C543.2,202.8,547.8,200.5,551.5,197.7z M541.3,243c-2.5,0.6-2.9-1.1-2.8-3.2C539.7,240.6,540.6,241.7,541.3,243z M538.8,213.7
			c-1.5,1.2-2.8-1.6-1.5-2.6C538.9,209.9,540.1,212.8,538.8,213.7z M536.3,167.3c0.6,0.1,1.8,0.2,2.4,0.3c-0.3,1.8-0.7,3.5-1.2,5.2
			c-1.1-0.4-2.2-0.8-3.3-1.1C534.9,170.2,535.6,168.8,536.3,167.3z M533.4,231c1.9,0.5,3.8,1.2,5.6,1.9c-1.8,2.1-4.2,3.6-7,3.9
			c-2.4,0.7-2.8-2.4-3.8-3.8C530.1,232.8,531.9,232.2,533.4,231z M528.5,212.4c0.6,3.3,1.6,6.6,0.7,9.9c-1.8-3.1-2.9-6.5-4-9.9
			C526.2,212.5,527.4,212.5,528.5,212.4z M526.2,244.7c0.2,0.5,0.5,1.4,0.6,1.9c-1.8,0.1-3.2-0.5-3.1-2.5
			C524.3,244.2,525.6,244.6,526.2,244.7z M525.6,259.8c-3.5-0.3-5.3-3.7-6.5-6.6C522.2,254.2,524.9,256.4,525.6,259.8z M521.7,276
			c-1.1,1.4-2.1,2.7-3.2,4.1c-0.8-0.6-2-1-2.2-2.2c0.7-3.1,2.1-5.9,3.2-8.9C522,270.6,521.9,273.4,521.7,276z M517.2,227.1
			c2.1,1,4.4,2,4.9,4.4c-2,0.1-4,0.1-6,0.1C516.4,230.1,516.8,228.6,517.2,227.1z M508.6,256.7c0.5-0.2,1.4-0.5,1.9-0.6
			c0,1.2,0,2.4,0,3.6c-0.6,0-1.7,0-2.3,0C508.3,258.8,508.4,257.7,508.6,256.7z M507.5,276c0.7-1.1,1.6-1.2,2.7-0.3
			c0.1,0.5,0.3,1.5,0.4,2C509.5,278.4,507.6,277.3,507.5,276z M511.8,243c-1.5,1.2-2.9-1.6-1.5-2.5C511.8,239.3,513.1,242,511.8,243
			z M511.8,320.8c1.2-0.5,2.5-0.9,3.7-1.4c2.3,3.3,5.8,6.2,6.3,10.4c-2.8,0.4-4.5,2.7-6,4.8C510,332.7,509.2,325.6,511.8,320.8z
			 M479.2,346.4c1.4-1.1,3.2,1.3,1.7,2.3C479.5,349.7,477.6,347.3,479.2,346.4z M476.2,350.3c1.5,0.8,3.2,1.5,4.4,2.7
			c0.3,2-0.3,3.9-0.5,5.9C476.2,358.6,476.4,353.3,476.2,350.3z M461.9,367.1c-0.2,0.6-0.5,1.9-0.7,2.5c-1.7-0.2-3.3-0.8-4.4-2.2
			C458.5,367.2,460.2,367.1,461.9,367.1z M461,377.2c-0.6,1.2-1.3,2.5-1.9,3.7c-1.7,0.6-3.4,1.2-5.1,1.9
			C456.2,380.8,458.6,378.9,461,377.2z M463.5,419.8c-1.8-4-4.9-7.3-9-8.9c-1.5-7.6,3.2-14.8,9.2-19.1c3.5-2.4,6.9-5.6,11.3-5.6
			c1.5,4.7,3.2,9.9,7.5,12.8C476,405.7,470.2,413.2,463.5,419.8z M537.3,400.4c-5.5,2.7-10.5,6.5-16.2,8.9
			c-6.3,0.7-12.3-2.4-17.1-6.2c-3-2.6-6.4-4.9-8.1-8.5c6,0.2,12.3,2.3,18.2-0.2c-0.8-1.5-2.4-2.1-3.9-2.5c-9-2.5-18.3-5.5-25.6-11.5
			c-2.7-2.1-4.3-5.2-5.4-8.4c1.3-1.5,2.7-3,3.8-4.7c1.1-0.3,2.2-0.5,3.4-0.8c0.2-1.7,0.4-3.5,0.6-5.2c2.2-0.4,4.3-0.8,6.5-1.2
			c1,5.8,5.1,10.4,8.9,14.6c5.1,5.6,12.1,9.2,19.5,10.5c3.7,0.2,7.5,0.2,11.2-0.6c2.8,3.9,5.3,8.1,8.9,11.3c1.9,1.7,5.1,1.8,5.9,4.6
			C544.5,401.6,540.8,399.6,537.3,400.4z M547,394.1c-2.2-3.4-3.9-7.2-4.8-11.2c5.8-1,11.6-2,17.4-3.3c-0.3-1.4-0.5-2.9-0.8-4.3
			c-6.7,0.5-13.5,0-19.8-2.3c-4-2-6.9,3-10.9,2.7c-7,0.2-13.3-3.6-19.1-7.2c6.8-1.6,13.6-3.3,20.5-4.4c-0.7,2.9-1.4,5.7-2.1,8.6
			c3.6-1.2,6.8-3.2,10.2-4.8c-0.3-1.9-0.6-3.7-1.1-5.5c3.1-0.8,6.2-2.1,9.5-1.6c3.1,0.5,6.1,1.1,9.1,1.8c0.1,1.5,0.3,3,0.5,4.5
			c-2.4,0.4-4.8,0.9-7.2,1.3c0.1,1.1,0.2,2.2,0.3,3.3c5.5-1.1,10.4-4.1,15.5-6.4c4.4,2.9,8.5,6,12.8,9.2c1.5-0.6,3.2-1.2,4-2.7
			c0.5,0.2,1.4,0.7,1.9,0.9c5-0.3,10-0.8,15.1-0.5c7.2,0.1,14.3,2.8,20,7.2c-3.4,0.1-6.9-0.1-10.3-0.1c-3.8,2.4-4.9,7.3-3.2,11.4
			c-1.7,1-3.6,1.2-5.4,1.5c-14.7,2.1-29.3,4.8-44,7C551.6,399.3,548.8,396.8,547,394.1z M593.2,432.1l-1.5,1.2
			c-0.7-2.2-1.1-4.5-1.5-6.8c-0.4-0.1-1.1-0.2-1.5-0.3c-0.6,0.9-1.1,1.8-1.7,2.7c-3.7-0.1-6.6-2.5-9.6-4.5c0.2-2.6,1.1-5.1,1.6-7.6
			c-4.8-2.5-9.6-5.1-14.4-7.6c-1.9-1-3.4-2.6-3.8-4.8c10-1.8,20.2,0,30.3-1c8.5-2.1,15.4-7.7,21.7-13.5c-0.1-0.6-0.2-1.8-0.3-2.5
			c-1.9-0.8-3.8-1.1-5.8-1.2c0-0.4,0-1.2,0-1.7c1.6-0.4,3.2-0.8,4.9-1.2c4.7,3.3,9,7.1,13.5,10.8c-1.6,0.3-3.2,0.6-4.9,1
			c0.1,1.6,0.2,3.1,0.4,4.7c0.8-0.2,1.7-0.4,2.6-0.7c0.7,0,2.2,0.1,2.9,0.2c-0.1-0.8-0.2-2.5-0.3-3.4c1.9,1.4,1.9,3.7,2,5.9
			c-1.4-0.8-2.8-1.7-4.2-2.5l1.1,2.3c-1.3,0.7-2.5,1.5-3.6,2.3c-3.5,1.1-7.5,2-10,4.9c-2,2-1.9,5.1-2.4,7.7
			c-0.4-0.1-1.2-0.3-1.5-0.4c-0.6-2.1-1-4.6-3-5.8c-1.4-0.2-2.7-0.3-4.1-0.4c0.9,1.2,1.9,2.4,2.5,3.8c-0.4,1.9-1,3.7-1.5,5.6
			c5.5,1.3,11.1,2,16.3,4.4c0.8,2.7,1.4,5.4,1.6,8.2c-7,0.6-13.6-3-20.6-3.7c0-2.2,0-4.4,0.1-6.6c-1.7-2.5-3.2-5.1-5.1-7.4
			c-1.9-0.8-3.3,2.1-2.4,3.5C592.9,422.3,593.7,427.2,593.2,432.1z M610.1,441.7c-4.9-0.8-9.7-2.3-14.5-3.5c-0.2-2-0.3-3.9-0.3-5.9
			c5.3-0.1,10.2,2,15.3,3.2C610.4,437.5,610.3,439.6,610.1,441.7z M626.1,442c-1.8,1.8-1.7,4.4-1.8,6.8c-2.3-0.4-4.7-0.9-7-1.3
			c-0.3-1.5-0.6-2.9-0.8-4.4c2-1.1,4-2.2,6-3.3c0.1-2.3-0.3-4.5-2.2-6c1.2-1,2.3-2.1,3.6-3c5.2-0.9,10.4,0.3,15.5,0.8
			c0.1,1.2,0.3,2.5,0.4,3.7C635.4,437.9,629.5,437.8,626.1,442z M642.3,446.5c-2.7,1.2-5.7,1.4-8.6,2c-1.7-0.7-3-2-3.9-3.5
			c4.8-2.2,9.6-4.5,15-4.7C644.6,442.5,643.8,444.7,642.3,446.5z M656.1,424.7c-1.2,3-2.8,6-5.4,8c-2.3,2-5.5,2.4-8.3,3.2
			c0-1.1,0-2.3,0-3.4c1.7-1.2,3.5-2.2,5.5-2.8c-0.3-1.9-0.7-3.8-1.3-5.6c-0.3,0.7-0.9,2-1.2,2.7c-8.3-0.1-16.6,0.8-24.9,0.7
			c-0.1-1-0.2-1.9-0.3-2.8c5.6-1.3,11.7-2.3,15.9-6.5c2.4-2.4,5,1,6.9,2.3c7.8-2.6,15.7-4.6,23.5-6.9c0.8,3.7,1.5,7.4,2.2,11
			C664.4,424.9,660.2,424.7,656.1,424.7z M668.3,397.4c-2.8-0.3-5.6-0.6-8.3-0.7c-2.1,5.3-4.9,11.1-10.4,13.6c-3.8,1.4-8,1.9-12,2.6
			c-0.1-1.6-0.3-3.2-0.3-4.9c0.9-3.2,3.4-5.7,4.4-8.8c-0.5-3.2-2.9-5.9-3.5-9.2c4.4,2.6,8.6,5.6,12.8,8.6c1.1-0.3,2.2-0.6,3.4-0.9
			c-0.5-6.1,4.7-10.7,9.9-12.7c3.6-1.3,8.4,2.1,10.9-1.7c1.7,3.1,5.1,3.5,8.3,3.3c-0.5,1.1-0.7,2.3-1.9,2.8
			C677,392,672.7,394.8,668.3,397.4z M696.7,418c-4,2.9-7,6.9-10.8,10c-1.8-4.4-5-8.1-9.4-9.9c-1-6.1,3.2-11.4,7.8-14.9
			c4.8-3.7,10.1-6.8,15.8-9c0.8,6.1,3.4,12.1,8.2,16.1C704.3,412.8,700.2,414.9,696.7,418z M744.7,418.5c-3.1,0.5-6.1-1.1-8.9-2.2
			c-5.9-2.9-11-7.4-14.7-12.9c5.2-0.3,10.3,1.3,15.5,1.4c-0.2-1.4-0.4-2.8-0.5-4.3c-2.1,0-4.2,0.1-6.2-0.2c-2.3-0.4-3.3-2.8-4.5-4.6
			c-7-0.1-15.1-2.3-18.5-8.9c-2.9-4.7-1.6-11,2.2-14.8c2.1-2,4.9-2.8,7.6-3.8c-1.1-1.3-2.2-2.6-3.3-3.9c4.2-0.2,8.8,0.6,12.4-2.2
			c0.1-11.1-2.7-22.2-1.1-33.2c-1.5-2.9-4.4-4.4-7.5-4.5c1.8-3.3,3.1-6.9,3.4-10.8c1-0.8,2-1.6,2.9-2.5c0.3-1.6,0.2-3.2,0.2-4.7
			c-1.5-2-5-3.3-4.3-6.3c0-1.8,1.9-2.3,3.1-3.1c0.1-2.2,0.1-4.3,0.1-6.5c9,0,18,0,27,0c0.5-1.4,1-2.8,1.4-4.3c0.3,0,0.9,0.1,1.2,0.1
			c0.2,0.7,0.6,2.1,0.8,2.8c1.9,0.6,3.8,1,5.8,1.5c-1.2,4.4-1.3,8.9-1.1,13.4c0.8,0.8,1.5,1.5,2.3,2.3c0.8,0,2.4,0,3.3,0
			c1-2.5,2-5.6,4.9-6.4c2.4-1,4.5,1.1,6.6,1.9c-2.2,3.6-3.2,9-7.7,10.2c-0.4-1.9-1.1-3.6-2.6-4.9c-2.6,2.8-6.3,5-7.4,8.9
			c-0.7,2.9-0.3,5.9-0.4,8.9c0.2,8.9,0.3,18,3.2,26.5c3.1-0.1,6.1,0,9.2,0c-2.7,1-5.2,2.3-7.8,3.5c-2.2-2.2-4.4-4.3-6.7-6.4
			c-2.2,0-4.4,0-6.6,0.1c-1.3,0.8-2.7,1.6-4,2.3c0.3,1.4,0.6,2.8,0.9,4.2c3.7-0.1,7.3,1.7,11,1.2c-0.1,0.2-0.4,0.7-0.6,0.9
			c4.2,0.6,8.2,2,12.4,2.6c0.1,0.8,0.2,1.6,0.3,2.4c-2.7,0.4-5.3,1-8,1.5c-3.4,1.4-6.9,3.4-8.2,7c-1,3.4-0.4,7-0.2,10.4
			c3.3-1.4,6.4-3.2,9.6-4.8c-0.7-2.3-3.3-3.2-4.5-5.2c-0.6-1.6,0.2-4.5,2.3-3.9c7.1,1.5,14.1,3.6,21.1,5.6c-4.2,4.6-10.2,7-15,10.8
			c-0.2-0.5-0.6-1.4-0.8-1.9c-11.2,1.5-23.8,2.4-33.6-4.4c-3.5-2-5.7-5.4-8.4-8.2c-1.2,0-2.4,0.1-3.5,0.2c0.6,2.5,1,5.1,2.6,7.1
			c4.4,6.2,9.3,12.7,16.3,16.1c4.1,2,8.7,0.9,12.5-1.2c7.6,2.7,13.5,8.7,17.7,15.4C759.1,408.4,751.4,413,744.7,418.5z M771.7,352.7
			c-1.6,0.5-2.2,0-1.7-1.7C771.6,350.5,772.2,351.1,771.7,352.7z M838.9,387.2c-3.9,0.4-7.8,0.8-11.4,2.3c-1.9,3.2-0.5,7.3-0.5,10.9
			c-15.3,1.3-30.7,2.3-46,4.1c-1,1.1-1.8,2.2-3,3.2c-1.3,0.7-2.1-0.9-2.9-1.6c-2.7-3.3-5.6-6.5-8.3-9.8c-1.5-1.7,1.3-3,2-4.4
			c4-0.6,8-1.4,11.9-2.3c-0.4-1.3-0.8-2.5-1.3-3.8c-0.6-0.3-1.8-0.9-2.3-1.1c-2.2,0.1-4.3,0.4-6.5,0.7c-0.1-0.9-0.3-1.8-0.4-2.8
			c6.9-2.8,13.7-6,20.7-8.6c3.1,2.6,6.2,5.3,9.3,7.9c1.3,1.4,3.3,0.5,4.9,0.5c0.4-0.3,1.2-1.1,1.6-1.4c-0.8-1-1.5-2-2.2-3
			c2.2-4.7,6.4-7.8,10.5-10.8c3.2,0.1,6.4,0.1,9.5,0.3c-0.7,3.6-3.2,7.7-1.1,11.2c5.4,3.9,11.9,6.1,18.4,6.8
			c0.7,1.3,0.4,2.8,0.6,4.2C841.2,389,840,388.1,838.9,387.2z M921.8,167.2c-0.7,1.7-2,3-3.6,3.8
			C919.3,169.6,920.5,168.3,921.8,167.2z M903.9,161c2.3-2.9,6.6-1.5,9.8-1.5c1.5,2,2.2,4.3,2.1,6.8c-0.8,0-2.3-0.1-3.1-0.1
			c-0.5,2.6-0.9,5.6-3.3,7.1c-2.1,1.6-4.8,1.5-7.3,1.6c-0.2-0.8-0.7-2.4-0.9-3.2c0.7-0.2,2.2-0.5,2.9-0.7
			C902.8,168,900.8,163.6,903.9,161z M895.7,245.3c-0.6,0-1.7,0-2.3,0c-0.8-0.8-1.5-1.5-2.3-2.2c0-0.9,0.1-2.7,0.1-3.6
			C893.7,240.6,896.2,242.2,895.7,245.3z M893.4,231.1c1.6,1.3,3.1,2.7,4.7,4c-0.6,1.3-1.5,2.4-2.7,3.1
			C894.2,236,893.1,233.7,893.4,231.1z M890.3,231.1c-0.8-1.2-1.7-2.4-2.7-3.4c0.5-2.8,0.8-5.9,3.3-7.7
			C891.3,223.6,894.1,228.5,890.3,231.1z M888.8,263.4c0,0.6,0,1.7-0.1,2.2c-1.1,0-2.3,0-3.4,0c0-0.5,0-1.6,0-2.2H888.8z
			 M892.2,285.5c0.4,0.4,1.2,1.1,1.6,1.4c-1.2,1.4-2.6,2.5-4.2,3.5c-0.9-0.5-1.8-1-2.7-1.5C888.4,287.4,890,285.9,892.2,285.5z
			 M890.7,278.3c-1.4-1-0.7-3.2-1-4.6c2-0.4,3.9-0.8,5.9-1.1c0.9,1.5,4.2,1.6,3.9,3.6c-1.1,1.2-2.1,2.5-3,3.8
			C894.5,279.5,892.5,279.2,890.7,278.3z M894.5,288.2c3.4-0.1,6.7,1.3,8.1,4.6c-1.9,3.3-3.5,6.9-6.6,9.3
			C893.3,297.9,894.8,292.8,894.5,288.2z M899,256.1c-3.3-0.9-2.5-5.7-3.5-8.3c0.7-0.2,1.9-0.7,2.6-1c1,1.4,2.3,2.5,2.8,4.2
			C900.7,252.8,899.9,254.5,899,256.1z M899,213.5c0.8-0.7,1.5-1.5,2.3-2.2c0.5,0,1.7,0.1,2.2,0.1v2.2
			C902,213.5,900.5,213.5,899,213.5z M901.8,187.6c-0.9,1.1-1.6,2.3-2.8,3.1c-1.5,0.1-2.9,0.1-4.4,0.1
			C896.3,188.3,898.7,186.8,901.8,187.6z M894.4,176.3c0,4.2,0,8.4,0,12.6c-3.1-0.1-6.2-1-7.9-3.8c1.6-2.7,2.7-5.7,3.4-8.7
			C891.4,176.3,892.9,176.3,894.4,176.3z M885.2,168.2c1-1.3,3.8,0,2.5,1.5C886.8,171,884,169.7,885.2,168.2z M893.7,197.6
			c1.7,0.5,3.4,0.8,5.1,1.4c0.1,1.5,0.1,3,0.1,4.4c-2.2,0.3-4.5,0.7-6.7,1c-1.1-1-2.2-3.1-3.9-1.7c-0.7,1.2-1.1,2.5-2,3.6
			c-1.2,0.2-2.3,0.3-3.5,0.4C885.6,202.9,890,200.6,893.7,197.6z M884.5,254.5c-1.4,1.1-2.7-1.4-1.4-2.3
			C884.4,251,885.5,253.6,884.5,254.5z M882.2,240.7c0.3,0.5,0.8,1.7,1.1,2.2c-0.7-0.1-2-0.2-2.7-0.2c0-0.6,0-1.8,0-2.5
			C881.1,240.3,881.9,240.6,882.2,240.7z M877.2,267.4c1.3,0.9,2.4,2,2.4,3.7c-0.9,2.9-2.2,5.7-2.2,8.7c-1.1-0.9-2.2-1.8-3.2-2.7
			c0.1-2.8,0.4-5.7,0.7-8.5C875.4,268.3,876.6,267.7,877.2,267.4z M877.3,254.2c1.5-1.2,2.8,1.6,1.5,2.6
			C877.2,257.9,876,255.1,877.3,254.2z M876.2,284.8c1.6,1.5,3.1,3.1,4.6,4.8c-2.9-0.4-5.4-2.1-6.8-4.8
			C874.6,284.8,875.7,284.8,876.2,284.8z M881.1,213.7c-1.4,1.2-3-1.2-1.7-2.3C880.8,210,882.5,212.6,881.1,213.7z M878.6,167.2
			c0.5,0.1,1.6,0.2,2.1,0.3c-0.3,1.7-0.5,3.5-0.9,5.2c-1.2-0.4-2.4-0.8-3.6-1.2C877.1,170.1,877.8,168.7,878.6,167.2z M875.8,230.7
			c1.7,0.7,3.4,1.4,5.2,2.2c-1.7,2.7-4.9,4-8,4c-1.4-0.8-1.8-2.6-2.6-3.8C872.4,232.8,874.3,232.1,875.8,230.7z M869.5,306.3
			c1.8,0.9-1.5,4.2-3,3.4C866.3,308.1,868.2,306.8,869.5,306.3z M868.2,250c1.6-0.5,2.1,0.1,1.6,1.8
			C868.2,252.3,867.6,251.7,868.2,250z M871.6,339.7c-0.9-0.5-1.9-1-2.8-1.5c-0.7-1.7-1.4-3.4-1.6-5.2
			C869.6,334.5,872.7,336.4,871.6,339.7z M870.8,323c1.1-0.2,2.3-0.5,3.4-0.7c0,1.8,0,3.6,0,5.4c-0.4,0-1.2,0-1.6,0
			C872,326.1,871.4,324.6,870.8,323z M870.6,212.4c0.7,3.2,1.4,6.5,0.8,9.8c-2-3-2.9-6.4-4.2-9.8
			C868.4,212.5,869.5,212.4,870.6,212.4z M868.3,244.7c0.1,0.4,0.4,1.3,0.5,1.8c-0.7,0-2,0-2.6-0.1c0-0.6,0-1.8,0-2.3
			C866.7,244.2,867.8,244.5,868.3,244.7z M867.7,259.8c-3.5-0.5-5.2-3.8-6.5-6.6C864.5,254.1,867,256.4,867.7,259.8z M863.8,271.1
			c0,1.6,0,3.3,0,4.9c-1,1.4-2.1,2.8-3.1,4.2c-0.8-0.6-1.6-1.3-2.3-2c0.8-3.1,2.1-6.1,3.4-9.1C862.2,269.6,863.3,270.6,863.8,271.1z
			 M859.5,227.1c2,1,4.3,2,4.6,4.5c-2,0-4,0-6,0C858.6,230.1,859,228.6,859.5,227.1z M850.7,256.8c0.5-0.2,1.4-0.6,1.9-0.8
			c0,1.3,0,2.5,0,3.8c-0.6,0-1.8-0.1-2.4-0.1C850.4,258.8,850.5,257.8,850.7,256.8z M852.7,277.7c-0.5-0.1-1.5-0.3-2-0.4
			c-0.9-1.2-0.8-2.1,0.3-2.7C852.3,274.7,853.4,276.5,852.7,277.7z M852.4,241c1.6-0.5,2.1,0.1,1.6,1.8
			C852.4,243.3,851.8,242.7,852.4,241z M857.1,319.3c2.8,3,6.4,6.3,6.7,10.7c-2.7,0.5-4.5,2.6-5.9,4.7
			C851.4,332.6,850.4,321.7,857.1,319.3z M862.4,367c-0.3,0.3-0.8,0.9-1.1,1.2c-0.5-0.3-1.5-1-2-1.3
			C859.4,365.2,862.4,365.3,862.4,367z M854.7,367.7c1.9,2.9,5.5,3.7,8.3,5.3c3.6,1.9,7.7,2.4,11.6,3.4c0.3,0.4,0.8,1.2,1,1.7
			c-1.1,0.6-2.2,1.2-3.4,1.7c0,0.8,0.2,2.3,0.2,3.1c-7-0.5-13.8-1.8-20.7-2.7c-0.2-3.5-2.6-7.4-0.1-10.5c-0.4-0.3-1.3-0.9-1.7-1.2
			C851.6,368.3,853.2,368,854.7,367.7z M861.3,392.6c-5.1,0.9-10.5-1.1-13.2-5.7c-1.8-2.3,2.6-3,4.1-3.6c3.8,0.7,7.1,2.9,10.6,4.4
			C862.3,389.3,861.8,391,861.3,392.6z M892.7,381.5c-0.8,2.3-1.6,4.5-2.4,6.8c-2.3,0-4.7,0-7,0c-3,4.1-5.8,8.3-9,12.3
			c-2.8-0.8-4.7-3.5-7.1-5.2c0-0.7-0.1-2-0.1-2.7c3.7-1.6,7.6-2.5,11.4-3.6c-0.2-1.5-0.3-3.1-0.5-4.6c-1.3,0.1-2.6,0.1-3.9,0.2
			c0.1-0.5,0.2-1.5,0.2-2.1C880.6,382.5,886.7,381.8,892.7,381.5z M880.3,370.6c-2.7,0.6-5.4,1.3-8.1,1.6c-2.7-0.6-5.2-1.8-7.8-2.8
			c0-1.3,0-2.5,0.1-3.8c6.5-1.4,13.1-4.1,19.7-1.9C883,366,881.6,368.3,880.3,370.6z M879.6,338.1c0-0.6,0.1-1.8,0.2-2.4
			c1.1,0,2.2,0,3.3,0.1C882.1,336.9,880.9,337.7,879.6,338.1z M875.2,318.6c-1.1-2.5-4-5.3-2.7-8c0.9,0.3,1.9,0.7,2.8,1
			c0.9-2.4,1.1-5.3,3.2-7c2.4-1.8,5.4-2.4,8.2-3.1c-0.2,2-1.1,3.8-2,5.6c0,2.1,2.5,3.6,1.6,5.9C885,317.7,879.5,319,875.2,318.6z
			 M887.2,330.8c0.1-1.7,3.2-1.8,3.3,0C890.2,332.2,887.4,332.3,887.2,330.8z M890.8,350.6c-0.5,0-1.5-0.2-2-0.2c0-1,0-2.1,0-3.1
			c0.5-0.1,1.6-0.2,2.1-0.3C890.8,348.2,890.8,349.4,890.8,350.6z M901.1,335.8c-1.3-0.3-2.9,0.2-4-0.7c-3.6-3-6.9-6.4-10.8-9
			c0.7-3,2.8-5.2,5.5-6.5c0.8,0.5,1.6,0.9,2.4,1.4c0.5,1.5,1,3.1,1.5,4.7c0.6,0,1.8-0.1,2.4-0.1c-0.5-0.8-0.9-1.6-1.4-2.5
			c0-1.4,0-2.7,0-4.1c1.5,0.3,3,0.6,4.5,1c0.9,4-1,7.8-3,11.2C898.7,332.9,900.1,334.3,901.1,335.8z M903.2,309.6
			c-1.6,0.4-2.6-2.3-1-3C903.7,306.2,904.7,309,903.2,309.6z M901.9,275c-1.8-0.8-0.3-3-0.1-4.3c1.4-0.2,2.7-0.4,4.1-0.6
			C905,272,904.4,274.8,901.9,275z M905.7,237.3c0-1.1,0.1-2.2,0.1-3.3c1.1,0.9,1.8,2.1,2.1,3.6
			C907.4,237.5,906.3,237.3,905.7,237.3z M917.5,254.7c1.8,3.4,2.3,7.2,3,10.9C916.8,263.3,916.9,258.4,917.5,254.7z M929.4,249.6
			c-1.4-0.1-2.8-0.3-4.2-0.5c0-0.7,0-2.2,0-3c1.5-0.3,2.9-0.6,4.4-0.9C929.5,246.6,929.4,248.1,929.4,249.6z M923,242.8
			c-2.7-0.3-4.4,2.9-7.2,1.9c-2.2,2.4-5.2,1-7.9,0.5c0.9-2.1,2.4-3.9,3.4-6c0.2-5.5,0.7-11,1.3-16.5c-0.6-0.1-2-0.2-2.6-0.2
			c0.8-1.5,1.7-3,2.6-4.4c0-2.4,0-4.7,0-7c-1.4-2-3-3.9-4.1-6.1c0.4-4.5,5.4-8.1,4-12.9c-0.9-1.4-2.5-1.6-3.9-1.9
			c-0.1-0.9-0.1-1.8-0.2-2.7c1.6,0.8,3.3,1.4,5.2,1.5c1-2.2,1.2-4.6,1.7-6.9c7-1.7,14.2-2.5,20.9-5c2.2-0.9,4.6-0.6,6.9-0.5
			c0.6,4.1-5.7,3.1-6.4,6.6c-0.3,5.3-0.1,10.7-0.1,16c0.7,1.1,1.3,2.1,2,3.2c-0.8,0-2.3,0.1-3.1,0.1c0,4.8,0,9.6,0,14.4
			c0.6,0.2,1.9,0.7,2.5,0.9c-0.1,3-2.3,5-3.6,7.5c-0.5,5.9,1.4,11.9-0.4,17.8C930.2,243.2,926.6,243.2,923,242.8z M941.6,248
			c0.8,2.8-2.1,4-4.3,4.5C938.6,250.9,940.1,249.4,941.6,248z M940,221.6c1.4-0.2,2.4,2.3,0.9,2.8
			C939.5,224.7,938.5,222.2,940,221.6z M939.4,277c-1.1-1.1-2.2-2.1-3.3-3.3c-0.9-0.6-1.8-1.1-2.7-1.6c1-2.4,1.2-5.5,3.5-7.2
			c1.5-1.3,3.5-1.3,5.4-1.6C943.6,268.1,941.1,272.7,939.4,277z M942,233.8c1.1,0,2.1,0.1,3.2,0.1c0,1,0.1,2,0.1,3
			C943.3,236.9,942.2,235.8,942,233.8z M950.8,257.8c-0.5,0-1.6-0.1-2.2-0.2c-0.4-2.8-0.8-5.6-1-8.4c1.3,1.1,3.1,1.9,3.4,3.7
			C951.1,254.5,950.9,256.1,950.8,257.8z M983.4,209c1.4-0.4,1.9,0.1,1.5,1.6C983.5,211,983,210.4,983.4,209z M959.3,170.2
			c1.6-0.1,1.7,2.8,0.1,2.8C957.8,173,957.8,170.3,959.3,170.2z M952.6,170.1c0.9,0.8,1.8,1.7,2.7,2.5c-0.8,0-2.4,0.1-3.2,0.1
			C952.2,172.1,952.5,170.8,952.6,170.1z M953.3,244.4c0.3-2.7,0.2-5.6,2.1-7.7C955.2,239.3,955.6,242.7,953.3,244.4z M956.3,193
			c2.1-2.2,4.9-3.5,7.8-4.5c3.3,3.2,5.6,7.1,7.7,11.1c-1.5,0.5-3.2,2-4.7,0.9C963.4,198.1,959.9,195.4,956.3,193z M966.4,226
			c-1.5-0.7-1.6-1.5-0.2-2.4C967.7,224.2,967.8,225,966.4,226z M974.7,261.3c0,1.8,0,3.6,0,5.5c-1-0.1-1.9-0.2-2.9-0.4
			c-0.5-1.6-1-3.2-1.5-4.8c-1.4-0.2-2.8-0.4-4.1-0.6c0.8,2.8,0,5.5-1.4,7.9c-1.9-1.7-3.9-3.3-5.4-5.3c-0.1-1.8,0.2-3.6,0.4-5.4
			c2.5,0.3,5.1,0.5,7.3-1C969.5,258.6,971.8,260.6,974.7,261.3z M972.3,214.8c-1.8-0.5-0.8-3.4,0.9-3.1
			C975,212.3,974.2,215.5,972.3,214.8z M981.5,176.3c0.6,0,1.7,0,2.2,0c0,1.5,0,3,0,4.5c-0.6,0-1.7-0.1-2.2-0.1
			C981.5,179.2,981.5,177.8,981.5,176.3z M979.5,190.5c1,1.1,1.6,2.4,2.2,3.7c-0.6,0.2-1.9,0.5-2.5,0.6
			C979.2,193.4,979.4,191.9,979.5,190.5z M980.5,201.2c0.4,1.5,0.9,3.1,1.2,4.7c-2.4,0.1-4.3-1.3-4.8-3.7
			C978.1,201.8,979.3,201.5,980.5,201.2z M986,236c0.4-1.7,0.2-3.6,0.3-5.3c-1.2-0.1-2.5-0.1-3.7-0.2c-1.4,1.7-3.9,3-3.3,5.5
			c-0.1,1.8,1.7,2.8,2.7,4C983.3,238.8,984.9,237.5,986,236z M1696.4,200.1c3.3-9.6-1.8-19.2-5.9-27.7c-1.9-4.4-5.5-7.7-8.5-11.2
			c-14-15.1-29.3-29.3-46.8-40.4c-17.7-11.3-38-19.4-59.2-20.2c-12.3-0.2-24.6-0.1-36.9-0.1c-12.5-0.1-24.9,3.1-36,8.6
			c-18.1,9.2-32.5,24.3-44.1,40.7c-5.1,7.4-10.2,14.9-13.7,23.2c-2.3,4,0.8,9.3-2.5,12.9c-0.1,1.4-0.1,2.8-0.1,4.2
			c3-0.1,6.2,0,8.6,2c-2.6,0.5-5.1,0.9-7.7,1.3c-0.4-1.2-0.8-2.5-1.2-3.8c-0.6-0.3-1.8-1-2.3-1.4c-1.2,0.5-2.5,1-3.7,1.5
			c0.8,0.8,1.5,1.7,2.2,2.6c-0.7,1.5-1.4,3.9-3.5,3.2c-0.8-1.1-1.4-2.3-2-3.5c1.2-1.6,2.3-3.2,3.5-4.8c-0.2-1.8-0.3-3.5-0.5-5.3
			c2.2,0.5,4.4,2.4,6.8,1.6c1.1-1.8,0.5-3.9,0.6-5.8c-0.4-10.7,0-21.4-0.2-32.1c0-2-2.4-3.2-4.2-3.1c-5.4,0-10.8-0.2-16.1,0.1
			c-2.8,1-4.8,4.1-4.4,7.1c-1.8-0.4-4.7,0.6-5.2-1.9c-3.2,0.3-6.3,0.5-9.5,0.6c-0.5,1.9-0.6,4.3-2.4,5.6c-3.4,0.9-7.1,0.6-10.1-1.2
			c0.2-2.4,0.6-4.8,1.1-7.2c0.8,0.2,2.4,0.8,3.2,1c0.5-1.4,1-2.7,1.5-4.1c-7.1-0.3-14.2,2.1-21.2-0.1c-0.9,0.3-1.8,0.6-2.7,1
			c-0.2,8.8,0,17.7-0.1,26.5c0.4,0.2,1.3,0.4,1.7,0.6c-0.1,2.5-1.1,4.8-1.5,7.2c0,1.5,1.3,2.5,2,3.8c-2,6.1-3.7,12.4-5.8,18.5
			c-12.1,1.7-24.2,3.2-36.2,5.1c0.3,2.2,0.7,4.4,1.1,6.6c-2.7,6.6-2.7,13.9-3.6,20.9c-0.6,9.3-1.9,18.6-1.6,27.9
			c3.8-0.1,7.6-0.6,11.3-1.3c-0.3-0.7-0.9-2-1.2-2.7c2.6-3.1,5.7-5.7,8.5-8.6c3.2,0.6,6.6,0.7,9.7,2.1c3.2,1.5,4,5.3,4.3,8.5
			c4.5-0.7,9-1.2,13.4-2.1c2.7,3.9,6.1,8,5.7,13c-0.8,0-2.5,0-3.4,0c-0.1,5.4-0.1,10.8,0,16.2c-0.1,1.9,1.3,3.3,2.1,4.9
			c-1.2,1.6-2.4,3.2-2.2,5.3c1.6,0.5,3.1,1.1,4.7,1.6c0,1,0,2,0,2.9c-1.2-0.4-3.2,0-2.9-2.1l-1.7,0.1c0.3,20,1.2,39.9,1.1,59.9
			c1.9,0.2,4.3-1,5.9,0.2c-0.7,1.7-1.7,3.3-2.5,4.9c4.2,3.4-0.1,8.9-3.1,11.6c2.3,2.3,6.2,2.6,8.9,0.6c1.5-1.6,3,0.4,4.4,0.9
			c1.1-0.9,2.2-1.9,3.2-2.8c1.7,1.2,3.1,3.2,5.5,2.8c10.7-0.2,21.3-1.1,32-1.1c-0.8-1.8-1.7-3.6-2.5-5.4c1.7-0.4,3.4-0.3,5.2-0.1
			c0.3,1.2,0.6,2.3,0.9,3.5c0.5,0,1.6,0,2.1,0c0.1-5.6-0.4-11.3,0.6-16.9c0.6-8.2,0.4-16.5,0.3-24.8c-4.1,1.1-5.7,5.3-8.7,7.8
			c-3.1,2.6-6.3,5.1-9.8,7.2c-0.8,0.5-1.5,0.6-2.3,0.1c-0.7-2.3-0.4-4.7-0.5-7c1.3,0.4,2.6,0.9,4,1.3c2.1-3,1.5-6.9,1.1-10.3
			c2,0.7,3.8,1.7,5.8,2.5c6.3-2.5,12.5-8.4,12.1-15.7c0.2-7.4,0.6-14.8,0.5-22.1c-0.5-0.2-1.4-0.6-1.9-0.8c2.6-3.3,2.6-7.5,2.2-11.5
			c-1.6-1.9-4.8-1.2-7-2.1c0.4-0.7,1.2-2,1.6-2.7c0.6-0.2,1.9-0.5,2.5-0.6c0.2-0.6,0.5-1.7,0.6-2.3c1.1,0.3,2.3,0.6,3.4,1
			c0.6-8-1.7-16.7,2.4-24.1c6.8,0,13.6-0.3,20.4-0.4c4.5-0.2,9.5,0.7,13.4-2.2c-0.3-6.1-1.3-12.5-4.7-17.8
			c-4.7-1.3-6.4,3.8-10.1,5.3c-5.1,2.6-10.2,5.5-15.7,7.3c0.5-2.7,1-5.4,1.3-8.1c1.7,0.8,3.4,1.5,5.1,2.3c0.3-3.6,2.4-6.8,2.2-10.4
			c1.5,1.4,2.9,2.9,4.6,4c3.5-0.6,6.7-3.4,10.4-2c0-0.7,0.1-2.2,0.2-2.9c0.7-0.6,1.3-1.3,2-1.9c-0.2-4.7-0.4-9.5-1.9-14
			c-1-2.8-2.8-5.3-4.1-7.9c1.3,0.3,2.7,0.7,4,1c4.1-0.8,8.4-0.7,12.6-0.8c4.6-4,9.3-8.2,15-10.7c7.4-3.5,14.4-7.7,21.7-11.5
			c2.8-1.2,5.6-3,8.8-2.6c4.9,0.1,9.8-0.8,14.7-1.3c8.4-1.8,16.9-0.2,25.4,0.3c11.5,0.9,22.9,2.4,34.1,5c5.2,0.4,9.7,2.8,14.4,4.7
			c4,0.9,6.2,4.5,9,7.1c2,1.8,3.4,4.2,4.4,6.8c-5.1-4-11.2-7.1-15.1-12.4c-1.6-0.8-3.2-1.5-4.8-2.1c-0.3,0.3-1,0.8-1.3,1
			c0.9,1.6,1.8,3.2,2.7,4.8c-1.3,0.1-2.6,0.2-3.9,0.2c-0.7-2.4-1.4-5,1-6.6c-4-0.9-8.1-1.7-12.2-2.3c-4.5-0.5-9.1-1.2-13.7-1.2
			c-2,0.9-0.3,2.8-0.1,4.3c-0.5,1.6-2.5,3.2-1.2,4.8c0.9,1.4,1.3,3,1.4,4.7c-3.4-0.6-7.2-0.9-9.8-3.5c-2.1-1.7-2.8-4.3-4-6.6
			c-0.7,0-2-0.1-2.6-0.1c0.4-1.4,0.9-2.8,1.3-4.2c-10.1-2.1-20.5-2.4-30.8-2.8c-2.6-0.4-4.3,1.7-5.9,3.3c-4.6,0.6-8.8,2.7-13,4.3
			c-11.2,4.4-22.6,8.9-32.5,15.8c-0.1,4.2-0.1,8.4,0,12.7c2.2,0.7,4.6,1.1,6.9,1.4c-0.5,3.5-5.3,2.2-6.8,4.7
			c-0.6,6.1-0.1,12.3-0.2,18.5c0.3,9.9-0.2,19.8,0,29.7c0.6,0,1.7,0,2.2,0c0-0.6,0.1-1.8,0.1-2.5c2.3,0.7,6,1.7,6.1,4.5
			c-4.1,1.7-9.2,5.1-8.4,10.2c0.1,4.8-0.3,9.7,0.3,14.5c0.7,0,2.2,0,2.9,0.1c0.6,1.4,1.2,2.8,1.8,4.2c-1.2,1.4-1.7,3.3-2.6,4.9
			c-0.9,1-2.8,1.6-2.4,3.3c-0.1,6.3,0,12.6,0,18.9c1.4-0.1,2.9-0.2,4.3-0.3c-0.2,1.9-0.5,3.7-0.9,5.6c6,6,12.1,12,18.1,18.1
			c31.5-0.1,62.9,0.1,94.4-0.1c2.5-1.8,3.6-5,5.4-7.4c-1.2-0.6-2.3-1.2-3.5-1.7c0.2-1.5,0.6-3,1-4.5c3.5,1,7.3,2,9.9,4.7
			c1.8,1.8,2.2,4.4,2.7,6.8c0.8-0.3,1.6-0.6,2.4-0.9c0.7,0.1,1.3,0.3,2,0.4c1.8-8.9,3.7-17.8,5.5-26.7c-5.5-2.4-11.7-1.2-16.5,2.1
			c0.2-1.5,0.4-2.9,0.6-4.4c-2.9,0-5.8,0-8.7,0c0.2,1.2,0.4,2.4,0.6,3.6c-1.6,0.7-3.1,1.4-4.7,2.1c-1-0.4-1.9-0.8-2.9-1.2
			c-0.1,4.1-0.2,8.2,0.1,12.2c-1.1,0.8-2.2,1.6-3.3,2.5c-2.5-2.8-4.2-6.2-5.5-9.7c-0.5-1.2-0.6-2.9,0.6-3.8c2.2-2.2,5.5-2,8.2-2.7
			c-1.2-1.4-2.4-2.8-3.7-4.1c-7.2,0-14.3,0-21.5,0c-0.7,2.5-0.9,5.2-2.5,7.4c-1.1,0.2-1.9-0.1-2.6-0.9c-3.3-3-6.5-6.2-9.6-9.5
			c-2.3-2.5-4.8-5.1-5.7-8.5c2.1-0.5,4.9,0.1,6.7-1.4c-0.6-7-1.6-14-2.2-21c5.5-0.1,11.1,0.1,16.6,0c1.6,0.2,2.6-1.3,3.9-2.1
			c3.4,2.5,7.6,3.5,11.7,3.2c-1.1-3.7,0.4-7.3,2.7-10.2c0.6,0.1,1.7,0.3,2.3,0.4c-0.2,2.5-0.6,5-1.1,7.5c0.7,0.8,1.4,1.5,2.1,2.3
			c3.8,0,7.7,0.1,11.5-0.1c0.6-1.2,1.3-2.4,2-3.6c0.1,0.9,0.2,2.8,0.3,3.7c5.9,0,11.8,0.1,17.7,0c1.9,0.1,3.3-1.3,4.9-2.1
			c2.9,2.6,7.9,3.4,10.3-0.2c0.1-4.4-0.1-8.9-0.9-13.2c1.1-11-1-22-1.1-33c-0.2-2.2,0.5-5-1.6-6.6c-2.6-2.4-5.3-4.6-7.9-7
			c-2.1,1.4-3.7,5.3-6.5,4.2c0.3-3-0.1-5.9,0.1-8.9c-0.1-1.2,0.6-2.7-0.4-3.7c-1.6,0.5-3.1,1.2-4.7,1.8c0-3,0.5-6.1,1.2-9
			c6.5,4.9,13.6,9.9,17.2,17.4c0.6-0.7,1.8-1,1.8-2.1c0.2-3.3,0.2-6.7-0.1-10c-0.8-4.1-3.5-7.5-6.2-10.5c0-0.4,0-1.2,0-1.7
			c16.9,0,33.8-0.6,50.6-2.6c-3.2,19.5-7.5,38.9-10.5,58.4c4.1,0.5,7-3,8.7-6.4c5.2-10.4,5.4-22.2,7.8-33.3
			c1.9,13.9,4.2,27.8,5.8,41.7c0.4-0.1,1.1-0.3,1.5-0.4c0.2-10,0-20,0.1-30c0.5,0,1.4,0,1.9,0c0,4.4,1.2,8.7,3.3,12.5
			c1.3-0.8,2.7-1.5,4.1-2.3C1704.7,226,1699.6,213.2,1696.4,200.1z M1333.7,249.9c-1.6,0.5-2.2-0.1-1.6-1.7
			C1333.7,247.7,1334.2,248.3,1333.7,249.9z M1428.9,346.5c3,1.3-1.7,3.9-2.2,1.2C1427.3,347.5,1428.4,346.8,1428.9,346.5z
			 M1428.6,354.9c0.3,3.6-1.2,6.9-3,9.9c-0.4,1.7-2.2,0.7-3.3,0.8C1423.6,361.8,1424.9,357,1428.6,354.9z M1438.5,181.9
			c-1,0-1.9,0-2.9,0c-0.2-2.4-2.3-5.3-0.2-7.3c1.1-1.1,1.9-3.8,4-2.7C1439.2,175.2,1439.3,178.6,1438.5,181.9z M1437.3,168.6
			c-2.2,0.1-4.3,0-6.4-0.3c-0.4-0.6-1.1-1.8-1.5-2.4c3.3-1.1,6.7-2.1,10.2-2.4c0.7,2.3,1.1,4.7,1.4,7.1
			C1439.7,169.9,1438.5,169.2,1437.3,168.6z M1438.4,144.1c1.6-0.5,2.1,0,1.6,1.7C1438.4,146.4,1437.9,145.8,1438.4,144.1z
			 M1441.2,153c-1.1,3-3.8,5-7.1,4.7C1434.1,153.9,1438.4,153.4,1441.2,153z M1432.7,160c-1.8-0.7-3-2.1-3.6-3.8
			C1431.1,156.6,1433.6,157.4,1432.7,160z M1434.1,225.1c-1.2,1.5-2.4,3-3.8,4.4c-2.4-0.8-4.8-1.5-7-2.8c-0.2-1.4,0.1-2.8,0.2-4.2
			C1427.4,222,1431.2,222.5,1434.1,225.1z M1425.7,249.5c-1.8,0.8-3.4-0.6-4.9-1.3c2.2-3.4,3.3-7.2,3.2-11.2
			c-2.1,0.3-4.3,0.9-6.4,0.4c-0.6-1.7,1-3,1.8-4.3c5.2-0.2,7.3,5.8,12.4,6c0,1.3,0.1,2.6,0.1,4
			C1430,245.5,1428.3,248.1,1425.7,249.5z M1429.6,256.7c0,0.5,0,1.6,0,2.1c-0.7-0.7-1.4-1.3-2.1-2
			C1427.9,256.8,1429,256.7,1429.6,256.7z M1419.6,283.8c-4.2-1.1-6.9-4.5-9.4-7.7c-0.7,0.3-2.2,0.8-3,1c0-0.5,0-1.5,0-2.1
			c0.7-0.2,2-0.6,2.7-0.8c-1-3.4-4.5-1.4-7-1.7c-0.8-0.8-1.3-1.8-1.9-2.8c2,0,4-0.1,6.1-0.1c1.5-1.8,4.6-2.9,4.3-5.7
			c0-0.7,0.1-2,0.2-2.7c1.7-1,1.9-3,2.3-4.7c1.1,0.3,2.2,0.5,3.3,0.8c0.7,3.1,1.1,6.2,1,9.4c-0.9,0.9-1.7,1.8-2.5,2.8
			c0.7,0,1.9,0.1,2.6,0.1c0-0.9,0.1-2.8,0.1-3.7c2.1,0.4,3.8,1.7,5.6,2.9c-1.2,3.4-2.2,7.3-5.5,9.1
			C1418.8,280,1419.2,281.9,1419.6,283.8z M1398.9,291.5c-0.2,1.6-0.4,3.3-0.7,4.9c-0.3,0-1,0.1-1.3,0.2c-0.3-1.9-2-2.6-3.5-3.4
			c0-1.1,0-2.2,0-3.3C1395.2,290.4,1397.1,290.9,1398.9,291.5z M1395.8,281.8c0.5-1.9,2.2-2.8,3.9-3.6
			C1399.5,280.3,1398.2,282.1,1395.8,281.8z M1395.4,303.7c-1.8-0.9-3.6-1.9-5.3-2.8c0.2-1.2,0.5-2.4,0.8-3.5
			C1393.6,297.8,1396.6,300.7,1395.4,303.7z M1393.3,272.1c-2.2-1.9-2.9-4.7-3.1-7.4c1.1-0.2,2.2-0.3,3.3-0.5
			C1393.5,266.8,1393.5,269.5,1393.3,272.1z M1391.4,279.3c0.8,2.3,1.7,4.6,2.1,7c-0.5,1.2-1.8,1.9-2.7,2.7
			c-0.8-1.2-1.6-2.5-2.6-3.7c0.4-2,1-4,1.5-5.9C1390.1,279.4,1390.9,279.4,1391.4,279.3z M1389,250.8c1.6-1.5,3.4-2.9,5.7-2.7
			c-0.1,0.6-0.2,1.7-0.3,2.2C1392.6,250.5,1390.7,250.7,1389,250.8z M1395.2,329.4c0.4,0.5,1.2,1.4,1.7,1.9c0.6,0.1,1.8,0.3,2.5,0.4
			c-0.8,1.6-1.6,3.1-2.4,4.7c-3,0.2-6-0.2-8.6-1.7C1387.3,330.7,1392.7,330.3,1395.2,329.4z M1398.6,314.9c-2-3.6-2-7.8-1.8-11.8
			c1.8,0.9,3.3,2.2,4.8,3.5C1401.3,309.7,1400.6,312.7,1398.6,314.9z M1410,224.6c-1.7-0.5-4.6-1.2-3.7-3.6c0.7-3.4,1.8-8.3,6.3-7.9
			c0.4,1.7,0.9,3.3,1,5C1412.2,220.2,1410.7,222.2,1410,224.6z M1410.2,234.1c-3.1-0.1-5.3-2.2-6.6-4.8c0.9,0,2.7-0.1,3.6-0.2
			C1408.1,230.8,1409.2,232.4,1410.2,234.1z M1415.2,201.4c1.4,0.2,1.6,0.9,0.6,2C1414.4,203.2,1414.2,202.5,1415.2,201.4z
			 M1422.7,284.4c1.2-0.8,3.5,0.7,2.8,2.1C1424.3,287.4,1421.9,285.8,1422.7,284.4z M1424,214c-1.4-0.5-2.2-1.6-3.3-2.5
			c1.8,0,3.5,0,5.3,0.1C1425.6,212.5,1425.4,213.9,1424,214z M1421.6,188.8c0.4-0.3,1.3-1,1.8-1.3c0.3-0.6,1-1.9,1.4-2.5
			c0.6,2.1,0.6,4.4,0.6,6.6c-0.9,0-1.7,0-2.6,0C1422.5,190.9,1421.9,189.5,1421.6,188.8z M1424,171.5c1.4-1,2.6,1.3,1.4,2.2
			C1424,174.8,1422.6,172.4,1424,171.5z M1424.9,180.8c-1.1,0.9-2.2,1.9-3.3,2.8c-2.3,0-4.6,0-6.8-0.1c-0.4-2-0.8-4-1.2-6
			c2.3,0.9,4.8,1,7.2,0.8C1422.2,179.2,1423.6,180,1424.9,180.8z M1416.8,151.8c1.8,0.7,4.6,1.6,4.9,3.8c-0.5,0.6-1.6,1.8-2.2,2.4
			C1417.3,156.5,1415.5,154.5,1416.8,151.8z M1415.3,157.7c1.2-0.3,2.8,0.3,3.1,1.6c0.9,4.2,1.5,8.4,2.2,12.6c-1.6,1.1-2.9,3.1-5,3
			c-0.9-3.7,1-7.1,1.6-10.7c-0.8,0.1-2.3,0.2-3.1,0.3c-0.9-1.2-1.8-2.4-2.6-3.6C1412,159.2,1413,157.1,1415.3,157.7z M1408.1,188.5
			c1.4,1.4,2.4,3.1,3.4,4.8c1,0,2.1-0.1,3.2-0.2c1.3-2.5,3.7-3.1,6.4-2.7c-0.9,1.5-1.9,2.9-3,4.4c-0.5-0.4-1.6-1.1-2.1-1.5
			c-3.6,0.7-6.8,2.7-10,4.3c-1.7-1.5-3.3-3-5-4.5C1403.1,191.3,1404.8,187.8,1408.1,188.5z M1407.2,175.7c-2.1-0.4-4.1-0.8-6.1-1.3
			c0.8-1.2,1.5-2.4,2.3-3.7C1405.2,171.9,1407.1,173.3,1407.2,175.7z M1403.9,159.9c-2.8,0.5-3.7-1.7-3.7-4
			C1402.4,156.3,1403.7,157.8,1403.9,159.9z M1404.2,179.8c0.7,1-1.1,1.9-1.4,2.8c-1.3-1-2.5-2-3.8-3
			C1400.7,179.6,1402.5,179.6,1404.2,179.8z M1400.2,196.7c1.4,2.2,2.5,4.4,3.5,6.8c-0.5,0-1.4-0.1-1.9-0.1
			c-1.7-2.1-2.9-4.5-3.8-7.1C1398.6,196.4,1399.7,196.6,1400.2,196.7z M1398.9,254c0.4-2.2,1.2-4.6,3.5-5.4
			c3.3-0.8,6.8-0.3,10.2-0.5c0,0.7,0,2.2-0.1,3c-0.8,0.2-2.5,0.6-3.3,0.8c0.7,1.4,1.3,2.8,2.1,4.2c-1.3,2.5-2.5,5.4-5.3,6.4
			c-3.3-0.3-6.7-0.6-10,0c-2.1,0.6-3.8-0.9-5.7-1.6c1.9-2.3,3.5-4.9,4.4-7.8C1396.1,253.4,1397.5,253.7,1398.9,254z M1396.7,213.2
			c0.4,4.5-4.2,7.6-8.3,7.6c-1-3.8,2.7-6.2,4.7-8.9C1394.2,210.5,1395.8,212.3,1396.7,213.2z M1386.9,199.9
			c-1.9,0.5-3.3-1.3-4.7-2.2c2.7-0.2,5-1.6,6.7-3.7C1388.6,196,1388.7,198.4,1386.9,199.9z M1394.5,166.4c0,1.7,0,3.5,0.1,5.2
			c-0.3,0-1,0-1.3,0c0.2-0.7,0.6-2.1,0.7-2.8c-2.1,0.4-4.1,0.7-6.2,1C1389.5,167.8,1391.6,166,1394.5,166.4z M1393.5,182.7
			c-1.4,3.2-2.8,6.5-4.6,9.5c-1.9,0.8-3.3-0.8-4.6-1.8c1.2-2.9,2.3-5.8,3.5-8.8C1389.7,182,1391.6,182.4,1393.5,182.7z
			 M1380.9,182.3c0.9-0.8,1.8-1.7,2.7-2.5c0.5,0.4,1.4,1.3,1.9,1.8c0,0.5,0,1.6,0,2.1C1384,183.2,1382.4,182.7,1380.9,182.3z
			 M1379.6,164.6c0.6-2.4,0.7-5.5,3.7-6c0-0.5,0.1-1.5,0.1-2c1.1,0,2.2,0,3.2,0c-0.4,2.6,0.7,5.8-1,8c-0.3-2.1,0.4-5.2-2.2-6
			c-0.1,2.6-0.1,5.3-0.1,7.9c-0.6,0-1.7,0.1-2.3,0.1c0.1,1.9,0.2,3.7,0.3,5.6c-2.5-1.9-3.8-4.8-5.1-7.6
			C1377.1,164.7,1378.8,164.6,1379.6,164.6z M1343.9,208.5c1.7,0,3.5,0,5.2,0c2.3,4.7,6.7,7.7,9.7,11.7c-3.5,0-6.9,0.4-10.3,0.9
			C1346.2,217.3,1345.3,212.8,1343.9,208.5z M1350.5,238.5c-0.8,1.4-3.5,0.3-2.2-1.2C1349.1,236,1351.8,237,1350.5,238.5z
			 M1360.7,241.5c-1.3-2.4-3.6,0.2-5.4-1.1c-0.7-0.7-1.2-1.5-1.7-2.3c2.8,0.5,5.5,1.8,8.3,1C1361.6,239.8,1362,242.9,1360.7,241.5z
			 M1375.7,238.7c-2.3,0-4.6-0.9-6.8-1.5c2-3.4,6.7-2.8,10.1-2.4C1378.4,236.5,1377.3,237.9,1375.7,238.7z M1379.9,214.4
			c0.7,0,1.9,0.2,2.6,0.2c-0.3,1.1-0.6,2.2-0.9,3.3C1381,216.7,1380.4,215.5,1379.9,214.4z M1381.8,264.9c-0.3-1.5-0.5-3.1-0.7-4.6
			c2.7,0.3,5.4,0.4,8.1,0.1C1389,264.4,1385,265,1381.8,264.9z M1387.6,280c-1.5-0.9-2.9-1.9-4.3-2.9c0-1.1,0.1-2.3,0.1-3.4
			c0.5,0,1.5,0,1.9,0C1386.6,275.6,1388,277.5,1387.6,280z M1383.1,311.5c-1.6,0.4-2.7-2.3-1.1-3
			C1383.5,308.1,1384.6,310.9,1383.1,311.5z M1383.7,320.5c1.7-0.1,3.4-0.1,5.1-0.1c0,0.6-0.1,1.7-0.1,2.2
			C1386.7,322.6,1384.7,322.4,1383.7,320.5z M1392.2,344.5c-0.8,1-1.5,1.9-2.2,2.9c-1.3-0.4-2.6-0.9-3.9-1.3
			c0.2-1.3,0.4-2.5,0.6-3.8c1.9,0,3.8,0,5.7,0C1392.4,342.8,1392.3,343.9,1392.2,344.5z M1397.1,357.3c-1.5,1.2-3.3,0.1-4.7-0.6
			c0.3-0.8,0.5-1.6,0.8-2.4c-1.3-3-0.4-6.1,0.3-9.1c2.7,0.1,5.5,0.5,8.2,1.2C1400.9,350.3,1400.2,354.6,1397.1,357.3z M1400.3,364.4
			c0.2-0.3,0.8-0.9,1-1.2C1405.1,362.5,1401.1,367.8,1400.3,364.4z M1400.2,332.4c0.8-1.8,2-3.4,3.2-4.9c1.2,0,2.5,0,3.8,0
			C1406.3,330.7,1403,331.7,1400.2,332.4z M1405.5,294.7c-1.9,0-1.9-1.9-2.1-3.3c2.4,0.2,4.7,0.7,7.1,1.2c0,0.9,0,1.9,0,2.8
			c-0.5,0.1-1.4,0.2-1.8,0.2c-0.4-0.6-1.1-1.9-1.4-2.6C1406.8,293.5,1405.9,294.3,1405.5,294.7z M1408.4,365.6
			c-0.2-1.8,0.6-3.5,1.2-5.2c1.1,0.5,2.1,0.9,3.2,1.4C1411.7,363.4,1411,366.7,1408.4,365.6z M1409.3,320.4c0.3,0,1,0,1.3,0
			c-0.2,1.3-0.2,2.6-1,3.8C1409.5,322.9,1409.4,321.7,1409.3,320.4z M1412.9,311.5c-1.4,1.2-3.4-1.1-1.8-2.1
			C1412.5,308.2,1414.5,310.4,1412.9,311.5z M1415.9,304.6c-2.3-0.6-4.6-1.3-6.8-2.2c2.5-3.1,6.2-4.8,10.2-5
			c0.9,2.3,1.8,4.7,2.5,7.2c-0.3,0-1,0.1-1.3,0.1c0-0.6-0.1-1.8-0.2-2.4C1418.7,302.7,1417.3,303.5,1415.9,304.6z M1420.9,337.5
			c-1.3,1.2-3.5-1-1.9-2.1C1420.4,334.3,1422.5,336.4,1420.9,337.5z M1419.8,311.8c2.2,3.7,3.6,7.7,4.3,11.9
			C1419.1,322.2,1419.1,316,1419.8,311.8z M1422.9,291.4c0.8-1,1.6-2,2.5-2.9c0.5,0.1,1.5,0.2,2,0.2c0,0.9,0.1,1.9,0.1,2.8
			C1425.9,291.5,1424.4,291.5,1422.9,291.4z M1426.2,275.9c2.2,2.1,4.7,4.2,5.9,7C1428.9,281.9,1425.3,279.9,1426.2,275.9z
			 M1433.2,308.7c-1.6-0.7-3.2-1.4-4.7-2.1c0-1.1,0.1-2.2,0.1-3.3c1.6,1.2,3.4,1.3,5.2,0.2C1433.6,305.2,1433.4,307,1433.2,308.7z
			 M1435.5,292.5c0,0.5,0.1,1.6,0.1,2.1c-0.6,0-1.7-0.1-2.2-0.1c0-0.5-0.1-1.5-0.1-2.1C1433.9,292.4,1435,292.5,1435.5,292.5z
			 M1432.8,267.3c-1.1-0.7-2.2-1.4-3.3-2.1c0-1.4,0.1-2.7,0.1-4.1c2.9-2.5,5.9-6.9,10.3-4.5C1437.6,260.2,1435.2,263.7,1432.8,267.3
			z M1439.4,226.5c-1.4-0.9-3-1.3-4.6-1c2.1-1.9,4.4-3.7,7.4-3.2C1441.5,223.8,1440.6,225.2,1439.4,226.5z M1436.9,207.2
			c-0.6-3.3,0.5-6.5,0.8-9.7h3.2c0.4,1.8,0.9,3.7,1.4,5.5C1440.7,204.6,1439,206.2,1436.9,207.2z M1459.6,244.7
			c1.4,0.8,1.5,1.6,0.1,2.5c-0.3-0.3-0.9-0.9-1.2-1.2C1458.8,245.7,1459.3,245,1459.6,244.7z M1446.8,219c-1.6,0.5-2.2-0.1-1.6-1.7
			C1446.8,216.8,1447.3,217.4,1446.8,219z M1458,210c2.5,3,1.4,7.5,2.2,11.1C1456.1,218.9,1458.3,213.7,1458,210z M1451.7,199.4
			c-0.1-0.5-0.3-1.5-0.5-1.9c3.3-1.1,6.6-2.1,10.1-2.2c0.4,2.1,0.8,4.2,1.3,6.3C1459.2,199.5,1455.2,201.1,1451.7,199.4z
			 M1591.2,345.5c-1,0.9-2.2,1.7-3.3,2.4c-0.1-0.6-0.2-1.9-0.2-2.5C1588.8,345.5,1590,345.5,1591.2,345.5z M1582.3,343.2
			c0.4,1.5,0.8,2.9,1.2,4.4c-0.5,0-1.4-0.1-1.8-0.2c-1.2-1.4-2.3-2.8-3.3-4.2C1579.8,343.2,1581.1,343.2,1582.3,343.2z
			 M1568.8,347.4c-1.1,0.5-2.2,1-3.2,1.4c0-4.6-3.8-7.9-3.8-12.3C1565.3,339.2,1568,343,1568.8,347.4z M1548.3,244.7
			c0.5,2.4,1,4.8,1.1,7.2c-2-1.9-3.1-4.6-3.3-7.3C1546.7,244.6,1547.8,244.7,1548.3,244.7z M1546.1,228.8c0.1-0.5,0.4-1.7,0.5-2.2
			c0.5-0.1,1.3-0.3,1.8-0.5c0,0.6,0,1.8,0,2.5C1547.8,228.7,1546.7,228.8,1546.1,228.8z M1542.6,199.4c0.9,0,2.7,0,3.5,0.1
			c0.8,0.9,1.8,1.8,2.5,2.8c0.4,1.3-0.6,2.5-0.9,3.7c-2.6-1.3-5.2-2.6-7.8-3.7C1540.8,201.3,1541.7,200.3,1542.6,199.4z
			 M1544.8,253.6l-0.8,0.3c-0.3-0.2-1-0.7-1.3-0.9c0.3-0.5,1-1.6,1.3-2.2C1545.4,251.3,1545.7,252.2,1544.8,253.6z M1532.2,194.1
			c1.6-0.5,2.1,0.1,1.6,1.7C1532.2,196.3,1531.6,195.7,1532.2,194.1z M1529.4,193.5c0.3,0.6,0.7,1.2,1,1.8c-1,1-2.5,0.9-3.8,1.1
			c-0.4-0.3-1.1-0.9-1.4-1.2C1526.7,194.6,1528,194,1529.4,193.5z M1522.5,193.5c-0.2,1.1-0.2,2.3-1.3,3c-0.4-0.4-1.2-1.2-1.6-1.6
			C1520.2,193.8,1521.4,193.7,1522.5,193.5z M1500.9,223.1c-1.2-0.7-2.4-1.4-3.6-2.1c0.5-1.4,1.1-2.7,1.7-4.1
			C1500.1,218.8,1500.5,220.9,1500.9,223.1z M1503.5,230c-0.9,1.2-1.8,2.3-2.8,3.5c-1.5-0.1-3-0.1-4.5-0.2c1.1-1.4,2.1-2.8,3.1-4.2
			C1500.7,229.4,1502.1,229.7,1503.5,230z M1494.4,206.8c-0.2-1.7-0.5-3.5-0.6-5.2c1,0,3,0,3.9,0.1
			C1497.5,203.9,1496,205.5,1494.4,206.8z M1496.4,238.5c-0.1,0.4-0.2,1.2-0.3,1.6c-0.5,0.1-1.4,0.3-1.9,0.4c0-1.1,0.1-2.2,0.2-3.3
			C1495.1,237.7,1495.7,238.1,1496.4,238.5z M1491.7,230.9c1.3,0.5,2.4,1.4,3.4,2.3c-1.1,0.1-2.3,0.1-3.4,0.2
			C1491.7,232.8,1491.7,231.5,1491.7,230.9z M1493.1,260.2c1.3-5.4,3.3-11.9,9.2-13.8c2.7,2.9,5.1,6,7.1,9.4
			c-4.9,0.2-7.3,4.7-7.8,9.1C1498.8,263.2,1496,261.6,1493.1,260.2z M1506.4,241.3c1.1,0.1,2.3,0.1,3.5,0.2
			c-1.1,0.8-2.2,1.7-3.3,2.5C1506.6,243.3,1506.4,242,1506.4,241.3z M1508.8,275c-3.5-0.5-6.8-1.3-10.2-2c0.7-2.3,1.4-4.5,2.1-6.8
			c2.2,0.3,5.2-0.8,6.7,1.4C1508.8,269.8,1508.5,272.5,1508.8,275z M1496.3,331.1c0.3-2.7,0.7-5.8,3.2-7.4c0.1,1.6,0.1,3.3,0.1,4.9
			C1498.5,329.5,1497.4,330.3,1496.3,331.1z M1504.6,285.5c0.7,1.1,0,3.2-1.5,3C1500.9,287.9,1502.8,284,1504.6,285.5z
			 M1506.3,315.1c-1.1,0.2-2.2,0.4-3.3,0.6c0.3-2.2,0.7-4.4,1-6.5c0.6,0,1.8,0.1,2.4,0.1C1506.5,311.2,1506.4,313.2,1506.3,315.1z
			 M1513.2,311.5c-0.4-1.2-0.8-2.3-1.1-3.5c1.7,0.5,3.4,1.1,5.1,1.8c0.1,0.4,0.3,1.2,0.4,1.7
			C1516.2,311.4,1514.7,311.5,1513.2,311.5z M1521.2,302.5c-1.9,0-3.8-0.1-5.7-0.2c0.2-2.5,1.3-4.9,0.7-7.4
			c-1.6-1.2-2.6,0.8-3.6,1.7c-1.4,1.7-2.5,3.6-3.8,5.3c-1.2-0.3-3.2-1.4-2.2-2.9c2.2-2.8,5-5.1,7.4-7.7c2.9,0.4,5.8,0.6,8.6,1.2
			c0.7,1.5,1.2,3.1,1.7,4.6C1523.2,298.8,1522.2,300.6,1521.2,302.5z M1514.4,253.7c0.6,0,1.7,0,2.2,0.1c-0.7,0.7-1.4,1.4-2.2,2.1
			C1514.4,255.3,1514.4,254.2,1514.4,253.7z M1517.4,259.2c0.9-1.4,3.7,0,2.5,1.5C1519,262.1,1516.3,260.8,1517.4,259.2z
			 M1520.5,282c0.2-0.4,0.5-1.1,0.6-1.5C1524.5,278.9,1522.2,285.1,1520.5,282z M1514.2,228.8c-2-0.3-4-0.8-5.9-1.3
			c2.4-4.4,4.5-9,7.3-13.2c3.9,1,7.8,2.2,11.6,3.5C1522.8,221.5,1516.7,223.3,1514.2,228.8z M1529.2,268.6c0.8,2.6,1.4,5.2,1.8,7.9
			c-0.5-0.1-1.6-0.2-2.1-0.3c-0.5-2.6-1-5.2-1.2-7.8L1529.2,268.6z M1528.7,328.1c1.2-2.9,4-5.2,7.3-5
			C1535.2,326.4,1531.7,327.7,1528.7,328.1z M1534.7,292.2c-0.5-0.3-1.6-0.8-2.2-1.1c0-3,0.7-6,1-8.9c0.8,0.2,2.5,0.6,3.3,0.8
			C1536.3,286.1,1535.5,289.1,1534.7,292.2z M1543.5,263.4c0.1,1.3,0.1,2.6,0.2,4c-1.6,0-3.2-0.1-4.8-0.1
			C1539.6,265.1,1541.5,264,1543.5,263.4z M1548.2,284.2c-1.5,0-3,0-4.4,0.1c-0.5-1.4-1-2.8-1.4-4.3
			C1544.8,280.6,1547.1,282,1548.2,284.2z M1552.7,308.1c-3.2-0.6-3.9,2.3-4.7,4.7c-0.5-0.2-1.5-0.5-2-0.7c-1.3-4.2-2-8.6-3.4-12.7
			c3.1-2.4,6.8,0,10.1,0.6C1552.7,302.7,1552.7,305.4,1552.7,308.1z M1613,251.2c1.6-0.5,2.2,0,1.7,1.6
			C1613.1,253.4,1612.5,252.8,1613,251.2z M1610.2,238.2c1.6-0.5,2.1,0,1.6,1.7C1610.3,240.4,1609.7,239.9,1610.2,238.2z
			 M1604.4,188.4c1.7,0.8-0.9,3.8-2.3,3.2C1601.5,190.2,1603.1,188.7,1604.4,188.4z M1593.8,205c1.1-2,0.6-4.2,0.5-6.4
			c1.6,0.1,3.8-0.8,5,0.8c2.6,3,2.9,7.2,3.3,11c-2.4,0.4-4.8,1.2-7,2.2c-0.4,1.1-0.8,2.3-1.1,3.4c-3.4-0.4-7.7-1.4-8.3-5.5
			c2.8,0.2,5.6,0.7,8.3,1.1C1594.6,209.5,1594.8,207.1,1593.8,205z M1568,193.9c-2.6-0.3-4.8-2.5-5-5.1
			C1565.1,190,1566.8,191.8,1568,193.9z M1559.7,282c-1.5-1.2-2.9-2.7-3.9-4.4c2.4-0.1,4.7-0.1,7.1,0
			C1561.8,279,1560.8,280.5,1559.7,282z M1581,276.4c-1.7,0.3-3.4,0.7-5.1,0.9c-2.1-0.8-3.9-2.3-6.3-1.9c0-0.9,0.1-2.7,0.2-3.6
			c0.6-0.1,1.8-0.3,2.4-0.4c0.4-0.5,1.1-1.4,1.5-1.8C1576.7,271.1,1581.8,271.9,1581,276.4z M1583.5,267.2c-0.6,0.1-1.7,0.2-2.3,0.3
			c0-1.4,0.1-2.8,0.2-4.3C1583.3,263.8,1583.6,265.5,1583.5,267.2z M1591.2,264c1.8-1.4,3.7-2.7,5.6-3.9c0.4,2.9-0.4,5.7-1.8,8.2
			C1593.6,266.9,1592.3,265.4,1591.2,264z M1600.1,272.9c-0.8,1.7-4.1,4-4.8,1.1c-1.3-2.5,1.3-4.2,2.7-5.8
			C1598.9,269.6,1601.3,271.1,1600.1,272.9z M1599.9,259.3c-7.7-1.7-15.6-0.5-23.4-1.3c-2.8,0-5.7-1.1-8.3,0.2
			c-0.2,0.7-0.6,1.9-0.9,2.6c-1,1-2.2,1.8-3.5,2.4c0.7-1.7,2.6-3,2.3-5.1c-1.3-1.8-4.3-0.3-6.1,0c-1.3-0.2-2.6-0.5-3.8-0.8
			c-0.1-7.1,0.1-14.2,0-21.2c0-3.7-2.1-7.2-1.8-10.8c2.2-3.3,1.9-7.2,1.8-11c5.2,0.7,10.5,1.7,15.7,2.3c2.2-2.2,4.7-4.2,7.9-4.6
			c0,0.6-0.1,1.8-0.1,2.3c-1.5,0.4-2.9,0.7-4.3,1.1c0,0.5,0,1.6,0.1,2.2c2.9,0.2,5.8,0.3,8.6,1.4c4,1.6,8.5,1.1,12.5,2.9
			c4.6,1.8,8.4,5.2,11,9.4c-0.7,1.5-1.7,3.1-1.2,4.9c1,7.8,2.2,15.6,3.1,23.5C1606.3,259.1,1602.8,257.4,1599.9,259.3z
			 M1609.3,272.8c0-1.1,0-2.2,0.1-3.3c0.5,0,1.6,0,2.1,0c0,1.1,0,2.2,0.1,3.3H1609.3z M1634.2,253.8c0.8,1.9,1.6,3.7,2.4,5.6
			c-2.5,0-5,0-7.4-0.1C1630.7,257.3,1632.4,255.5,1634.2,253.8z M1628.6,274.3c0,0.5-0.1,1.5-0.1,2c-1.1,0.4-2.1,0.8-3.1,1.2
			c-0.1-1.1-0.1-2.2-0.2-3.3C1626.3,274.2,1627.4,274.2,1628.6,274.3z M1626.9,279.2c-0.8,1.5-1.7,2.8-2.9,4
			C1624.1,281.2,1624.5,279.2,1626.9,279.2z M1624.6,237.2c0.2,4.3-0.7,9.1-3.9,12.2C1620.7,245.1,1620.3,239.5,1624.6,237.2z
			 M1620.4,223.2c1.5-1.1,3,1.5,1.5,2.4C1620.4,226.6,1618.8,224.1,1620.4,223.2z M1620.3,261.6c0.9-0.6,1.8-1.2,2.8-1.7
			c-0.5,2.1-1.2,4.1-2,6.1c-3.4-0.4-6.8-1.2-10-2.5c0.7-1.5,1.6-2.9,2.6-4.2C1615.9,260,1618.1,260.8,1620.3,261.6z M1537.3,124.9
			c2.5,0,5-0.2,7.4-0.8c4.3-2.9,4.8-8.5,5.1-13.2c4.1,2.1,6.3,7.8,11.4,7.5c0.4-1.8,0.9-3.5,1.3-5.3c0.3,0,1,0.1,1.3,0.1
			c-0.8,3.7-2,7.3-2.7,11c1.9,0.6,3.9,1.2,5.8,2c2.6,0.1,5.2,0.1,7.8,0.1c0,0.5,0,1.4-0.1,1.9c-2.4-0.1-5.1,0.7-4.3,3.7
			c1,0.6,2.1,1.3,2.9,2.2c-3.8,0.1-7.7,0.3-11.3,1.6c-1.5,3.9-4.9,6.7-8.8,7.9c-0.5-1.9-0.4-4.3-2-5.7c-3.4-3.6-8.7-3.6-13.2-3.7
			c-0.1-0.4-0.2-1.2-0.2-1.6c1.7-0.5,3.3-0.9,5-1.4c-0.1-1.6-0.5-3-1.1-4.5c-1.4-0.1-2.9-0.2-4.3-0.3
			C1537.2,126.1,1537.2,125.3,1537.3,124.9z M1500.6,179.2c-3.5-1.9-6.3-6-10.8-5c-2.2-0.5-2.1,2.2-2.6,3.6c-0.2,0-0.4-0.1-0.6-0.1
			c0.1-4.7-0.7-9.5-3.5-13.4c-3.5,2.9-8.3,2-12.5,1.7c2.5-0.8,5.7-1.1,6.9-3.9c0.3-2.2-1.9-3.1-3.2-4.3c4.2-0.4,8.3-1.6,12.3-2.7
			c-0.8-3.3-1.8-6.5-2.1-9.9c2.5,0.8,1.4,4.9,4.7,4.5c1.3-1,1.2-2.7,1.7-4.1c0.8,0,2.3,0,3.1,0.1c0.4,1.8,0.3,4,1.9,5.3
			c3.1,3.4,8.2,2.4,12.3,2.6c-1.1,2.6-2.9,5-3.1,7.9c1.2,0.4,2.4,0.8,3.6,1.1c0,0.4,0.1,1.1,0.1,1.5c-3,0.2-5.9,1.3-8.5,2.8
			C1500.2,171,1500.6,175.1,1500.6,179.2z M1606.6,176c-0.3-0.1-0.9-0.2-1.3-0.3c-8.2-0.5-16.2-2.7-24.3-3.6
			c-14-1.9-28.2-2.7-42.3-2.5c-8.6,1.1-16.3,5.2-24.2,8.5c2.3-6.6,4.8-13.7,10.3-18.4c2.2-1.9,5.1-2.5,7.9-3.2
			c-0.2,2.5-0.4,5.1-0.2,7.6c1.6,2.3,4.8,3.3,7.5,3.2c2.8-1.5,4.7-4,6.7-6.4c-1.6-2.7-4.5-3.6-7.3-4.2c-0.1-0.5-0.4-1.5-0.5-2
			c15.6-1.7,31.4-2.7,46.9-0.3c6.6,1.2,13.8,2.9,18.3,8.2C1607.5,166.4,1606.4,171.5,1606.6,176z M1644.8,162.3
			c-3.2,3.5-3.5,8.3-3.9,12.8c-2.3-0.2-1.9-3.2-2.7-4.8c-3.6,1.8-7.2,3.5-11,5c0.6-4.1,1.5-8.1,1.5-12.3c-2.8-1.3-5.6-2.3-8.6-3
			c0.9-0.9,1.7-1.9,2.6-2.9c0.4-2-0.6-3.9-1.6-5.6c-0.7-0.1-2.2-0.3-2.9-0.4c0-0.5,0-1.4,0-1.8c4.1,2,8.8,1.5,13.3,1.2
			c2.5-1.1,3.1-3.9,3.4-6.4c2.2,0.5,4.5,1,6.7,1.5c0,2.3,0,4.6-0.1,6.9c4.1,1.1,8.4,1.8,12.3,3.6c-1.5,0.6-3,1.2-4.5,1.8
			c0.4,3.9,4.7,3.2,6.7,5.5C1652.4,163.3,1648.6,162.4,1644.8,162.3z M982,240.1c0,0,0.1,0.1,0.1,0.1C982,240.1,982,240.1,982,240.1
			C982,240.1,982,240.1,982,240.1z M1558.2,165.5c0.5,0.5,1.4,1.4,1.9,1.9c2.8,0.4,5.6,0.5,8.5,0.3c1.8-0.6,3.3-2.1,4.2-3.8
			c-1-3.2-3.1-5.8-4.7-8.6C1562.9,156,1557.7,159.8,1558.2,165.5z"/>
	</g>
</g>
</svg>
